<?xml version="1.0" encoding="us-ascii" standalone="no"?><svg xmlns="http://www.w3.org/2000/svg" xmlns:xlink="http://www.w3.org/1999/xlink" contentStyleType="text/css" height="1187px" preserveAspectRatio="none" style="width:815px;height:1187px;background:#FFFFFF;" version="1.1" viewBox="0 0 815 1187" width="815px" zoomAndPan="magnify"><defs/><g><rect fill="#ADD8E6" height="1175.8516" style="stroke:#181818;stroke-width:0.5;" width="339.5" x="49" y="6"/><text fill="#000000" font-family="sans-serif" font-size="13" font-weight="bold" lengthAdjust="spacing" textLength="30" x="203.75" y="18.0669">App</text><rect fill="#ADD1B2" height="1175.8516" style="stroke:#181818;stroke-width:0.5;" width="340" x="390.5" y="6"/><text fill="#000000" font-family="sans-serif" font-size="13" font-weight="bold" lengthAdjust="spacing" textLength="34" x="543.5" y="18.0669">Core</text><rect fill="#FFFFFF" height="374.1953" style="stroke:#181818;stroke-width:1.0;" width="10" x="73.5" y="118.5625"/><rect fill="#FFFFFF" height="201.6641" style="stroke:#181818;stroke-width:1.0;" width="10" x="171.5" y="773.625"/><rect fill="#FFFFFF" height="14" style="stroke:#181818;stroke-width:1.0;" width="10" x="331.5" y="263.0938"/><rect fill="#FFFFFF" height="14" style="stroke:#181818;stroke-width:1.0;" width="10" x="331.5" y="802.7578"/><rect fill="#FFFFFF" height="14" style="stroke:#181818;stroke-width:1.0;" width="10" x="427.5" y="219.9609"/><rect fill="#FFFFFF" height="14" style="stroke:#181818;stroke-width:1.0;" width="10" x="427.5" y="335.3594"/><rect fill="#FFFFFF" height="86.2656" style="stroke:#181818;stroke-width:1.0;" width="10" x="427.5" y="392.4922"/><rect fill="#FFFFFF" height="426.2656" style="stroke:#181818;stroke-width:1.0;" width="10" x="427.5" y="599.1563"/><rect fill="#FFFFFF" height="86.2656" style="stroke:#181818;stroke-width:1.0;" width="10" x="432.5" y="875.0234"/><rect fill="#FFFFFF" height="43.1328" style="stroke:#181818;stroke-width:1.0;" width="10" x="605.5" y="421.625"/><rect fill="#FFFFFF" height="43.1328" style="stroke:#181818;stroke-width:1.0;" width="10" x="605.5" y="686.5547"/><rect fill="#FFFFFF" height="43.1328" style="stroke:#181818;stroke-width:1.0;" width="10" x="605.5" y="904.1563"/><rect fill="#FFFFFF" height="14" style="stroke:#181818;stroke-width:1.0;" width="10" x="605.5" y="1011.4219"/><rect fill="#FFFFFF" height="14" style="stroke:#181818;stroke-width:1.0;" width="10" x="765" y="176.8281"/><rect fill="#6495ED" height="364.1328" style="stroke:#000000;stroke-width:1.5;" width="607.5" x="129" y="619.1563"/><rect fill="#FFC0CB" height="245.6016" style="stroke:none;stroke-width:1.0;" width="607.5" x="129" y="737.6875"/><line style="stroke:#181818;stroke-width:0.5;stroke-dasharray:5.0,5.0;" x1="24" x2="24" y1="87.4297" y2="1102.5547"/><line style="stroke:#181818;stroke-width:0.5;stroke-dasharray:5.0,5.0;" x1="78" x2="78" y1="87.4297" y2="1102.5547"/><line style="stroke:#181818;stroke-width:0.5;stroke-dasharray:5.0,5.0;" x1="176" x2="176" y1="87.4297" y2="1102.5547"/><line style="stroke:#181818;stroke-width:0.5;stroke-dasharray:5.0,5.0;" x1="336.5" x2="336.5" y1="87.4297" y2="1102.5547"/><line style="stroke:#181818;stroke-width:0.5;stroke-dasharray:5.0,5.0;" x1="432.5" x2="432.5" y1="87.4297" y2="1102.5547"/><line style="stroke:#181818;stroke-width:0.5;stroke-dasharray:5.0,5.0;" x1="610" x2="610" y1="87.4297" y2="1102.5547"/><line style="stroke:#181818;stroke-width:0.5;stroke-dasharray:5.0,5.0;" x1="705.5" x2="705.5" y1="87.4297" y2="1102.5547"/><line style="stroke:#181818;stroke-width:0.5;stroke-dasharray:5.0,5.0;" x1="769.5" x2="769.5" y1="87.4297" y2="1102.5547"/><text fill="#000000" font-family="sans-serif" font-size="14" lengthAdjust="spacing" textLength="32" x="5" y="84.1279">User</text><ellipse cx="24" cy="19.6328" fill="#E2E2F0" rx="8" ry="8" style="stroke:#181818;stroke-width:0.5;"/><path d="M24,27.6328 L24,54.6328 M11,35.6328 L37,35.6328 M24,54.6328 L11,69.6328 M24,54.6328 L37,69.6328 " fill="none" style="stroke:#181818;stroke-width:0.5;"/><text fill="#000000" font-family="sans-serif" font-size="14" lengthAdjust="spacing" textLength="32" x="5" y="1114.5498">User</text><ellipse cx="24" cy="1126.3516" fill="#E2E2F0" rx="8" ry="8" style="stroke:#181818;stroke-width:0.5;"/><path d="M24,1134.3516 L24,1161.3516 M11,1142.3516 L37,1142.3516 M24,1161.3516 L11,1176.3516 M24,1161.3516 L37,1176.3516 " fill="none" style="stroke:#181818;stroke-width:0.5;"/><rect fill="#E2E2F0" height="30.2969" rx="2.5" ry="2.5" style="stroke:#181818;stroke-width:0.5;" width="51" x="53" y="56.1328"/><text fill="#000000" font-family="sans-serif" font-size="14" lengthAdjust="spacing" textLength="37" x="60" y="76.1279">index</text><rect fill="#E2E2F0" height="30.2969" rx="2.5" ry="2.5" style="stroke:#181818;stroke-width:0.5;" width="51" x="53" y="1101.5547"/><text fill="#000000" font-family="sans-serif" font-size="14" lengthAdjust="spacing" textLength="37" x="60" y="1121.5498">index</text><rect fill="#E2E2F0" height="30.2969" rx="2.5" ry="2.5" style="stroke:#181818;stroke-width:0.5;" width="75" x="139" y="56.1328"/><text fill="#000000" font-family="sans-serif" font-size="14" lengthAdjust="spacing" textLength="61" x="146" y="76.1279">VisorApp</text><rect fill="#E2E2F0" height="30.2969" rx="2.5" ry="2.5" style="stroke:#181818;stroke-width:0.5;" width="75" x="139" y="1101.5547"/><text fill="#000000" font-family="sans-serif" font-size="14" lengthAdjust="spacing" textLength="61" x="146" y="1121.5498">VisorApp</text><rect fill="#E2E2F0" height="30.2969" rx="2.5" ry="2.5" style="stroke:#181818;stroke-width:0.5;" width="96" x="288.5" y="56.1328"/><text fill="#000000" font-family="sans-serif" font-size="14" lengthAdjust="spacing" textLength="82" x="295.5" y="76.1279">DataService</text><rect fill="#E2E2F0" height="30.2969" rx="2.5" ry="2.5" style="stroke:#181818;stroke-width:0.5;" width="96" x="288.5" y="1101.5547"/><text fill="#000000" font-family="sans-serif" font-size="14" lengthAdjust="spacing" textLength="82" x="295.5" y="1121.5498">DataService</text><rect fill="#E2E2F0" height="30.2969" rx="2.5" ry="2.5" style="stroke:#181818;stroke-width:0.5;" width="76" x="394.5" y="56.1328"/><text fill="#000000" font-family="sans-serif" font-size="14" lengthAdjust="spacing" textLength="62" x="401.5" y="76.1279">BaseApp</text><rect fill="#E2E2F0" height="30.2969" rx="2.5" ry="2.5" style="stroke:#181818;stroke-width:0.5;" width="76" x="394.5" y="1101.5547"/><text fill="#000000" font-family="sans-serif" font-size="14" lengthAdjust="spacing" textLength="62" x="401.5" y="1121.5498">BaseApp</text><rect fill="#E2E2F0" height="30.2969" rx="2.5" ry="2.5" style="stroke:#181818;stroke-width:0.5;" width="27" x="597" y="56.1328"/><text fill="#000000" font-family="sans-serif" font-size="14" lengthAdjust="spacing" textLength="13" x="604" y="76.1279">Ui</text><rect fill="#E2E2F0" height="30.2969" rx="2.5" ry="2.5" style="stroke:#181818;stroke-width:0.5;" width="27" x="597" y="1101.5547"/><text fill="#000000" font-family="sans-serif" font-size="14" lengthAdjust="spacing" textLength="13" x="604" y="1121.5498">Ui</text><text fill="#000000" font-family="sans-serif" font-size="14" lengthAdjust="spacing" textLength="36" x="684.5" y="84.1279">State</text><path d="M687.5,35.1328 C687.5,25.1328 705.5,25.1328 705.5,25.1328 C705.5,25.1328 723.5,25.1328 723.5,35.1328 L723.5,61.1328 C723.5,71.1328 705.5,71.1328 705.5,71.1328 C705.5,71.1328 687.5,71.1328 687.5,61.1328 L687.5,35.1328 " fill="#E2E2F0" style="stroke:#181818;stroke-width:1.5;"/><path d="M687.5,35.1328 C687.5,45.1328 705.5,45.1328 705.5,45.1328 C705.5,45.1328 723.5,45.1328 723.5,35.1328 " fill="none" style="stroke:#181818;stroke-width:1.5;"/><text fill="#000000" font-family="sans-serif" font-size="14" lengthAdjust="spacing" textLength="36" x="684.5" y="1114.5498">State</text><path d="M687.5,1127.8516 C687.5,1117.8516 705.5,1117.8516 705.5,1117.8516 C705.5,1117.8516 723.5,1117.8516 723.5,1127.8516 L723.5,1153.8516 C723.5,1163.8516 705.5,1163.8516 705.5,1163.8516 C705.5,1163.8516 687.5,1163.8516 687.5,1153.8516 L687.5,1127.8516 " fill="#E2E2F0" style="stroke:#181818;stroke-width:1.5;"/><path d="M687.5,1127.8516 C687.5,1137.8516 705.5,1137.8516 705.5,1137.8516 C705.5,1137.8516 723.5,1137.8516 723.5,1127.8516 " fill="none" style="stroke:#181818;stroke-width:1.5;"/><rect fill="#E2E2F0" height="30.2969" rx="2.5" ry="2.5" style="stroke:#181818;stroke-width:0.5;" width="67" x="736.5" y="56.1328"/><text fill="#000000" font-family="sans-serif" font-size="14" lengthAdjust="spacing" textLength="53" x="743.5" y="76.1279">times.js</text><rect fill="#E2E2F0" height="30.2969" rx="2.5" ry="2.5" style="stroke:#181818;stroke-width:0.5;" width="67" x="736.5" y="1101.5547"/><text fill="#000000" font-family="sans-serif" font-size="14" lengthAdjust="spacing" textLength="53" x="743.5" y="1121.5498">times.js</text><rect fill="#FFFFFF" height="374.1953" style="stroke:#181818;stroke-width:1.0;" width="10" x="73.5" y="118.5625"/><rect fill="#FFFFFF" height="201.6641" style="stroke:#181818;stroke-width:1.0;" width="10" x="171.5" y="773.625"/><rect fill="#FFFFFF" height="14" style="stroke:#181818;stroke-width:1.0;" width="10" x="331.5" y="263.0938"/><rect fill="#FFFFFF" height="14" style="stroke:#181818;stroke-width:1.0;" width="10" x="331.5" y="802.7578"/><rect fill="#FFFFFF" height="14" style="stroke:#181818;stroke-width:1.0;" width="10" x="427.5" y="219.9609"/><rect fill="#FFFFFF" height="14" style="stroke:#181818;stroke-width:1.0;" width="10" x="427.5" y="335.3594"/><rect fill="#FFFFFF" height="86.2656" style="stroke:#181818;stroke-width:1.0;" width="10" x="427.5" y="392.4922"/><rect fill="#FFFFFF" height="426.2656" style="stroke:#181818;stroke-width:1.0;" width="10" x="427.5" y="599.1563"/><rect fill="#FFFFFF" height="86.2656" style="stroke:#181818;stroke-width:1.0;" width="10" x="432.5" y="875.0234"/><rect fill="#FFFFFF" height="43.1328" style="stroke:#181818;stroke-width:1.0;" width="10" x="605.5" y="421.625"/><rect fill="#FFFFFF" height="43.1328" style="stroke:#181818;stroke-width:1.0;" width="10" x="605.5" y="686.5547"/><rect fill="#FFFFFF" height="43.1328" style="stroke:#181818;stroke-width:1.0;" width="10" x="605.5" y="904.1563"/><rect fill="#FFFFFF" height="14" style="stroke:#181818;stroke-width:1.0;" width="10" x="605.5" y="1011.4219"/><rect fill="#FFFFFF" height="14" style="stroke:#181818;stroke-width:1.0;" width="10" x="765" y="176.8281"/><polygon fill="#181818" points="61.5,114.5625,71.5,118.5625,61.5,122.5625,65.5,118.5625" style="stroke:#181818;stroke-width:1.0;"/><line style="stroke:#181818;stroke-width:1.0;" x1="24" x2="67.5" y1="118.5625" y2="118.5625"/><text fill="#000000" font-family="sans-serif" font-size="13" lengthAdjust="spacing" textLength="29" x="31" y="113.4966">get /</text><polygon fill="#181818" points="164.5,143.6953,174.5,147.6953,164.5,151.6953,168.5,147.6953" style="stroke:#181818;stroke-width:1.0;"/><line style="stroke:#181818;stroke-width:1.0;" x1="83.5" x2="170.5" y1="147.6953" y2="147.6953"/><text fill="#000000" font-family="sans-serif" font-size="13" lengthAdjust="spacing" textLength="69" x="90.5" y="142.6294">configure()</text><polygon fill="#181818" points="753,172.8281,763,176.8281,753,180.8281,757,176.8281" style="stroke:#181818;stroke-width:1.0;"/><line style="stroke:#181818;stroke-width:1.0;" x1="176.5" x2="759" y1="176.8281" y2="176.8281"/><text fill="#000000" font-family="sans-serif" font-size="13" lengthAdjust="spacing" textLength="79" x="183.5" y="171.7622">get /times.js</text><polygon fill="#181818" points="187.5,186.8281,177.5,190.8281,187.5,194.8281,183.5,190.8281" style="stroke:#181818;stroke-width:1.0;"/><line style="stroke:#181818;stroke-width:1.0;stroke-dasharray:2.0,2.0;" x1="181.5" x2="769" y1="190.8281" y2="190.8281"/><polygon fill="#181818" points="415.5,215.9609,425.5,219.9609,415.5,223.9609,419.5,219.9609" style="stroke:#181818;stroke-width:1.0;"/><line style="stroke:#181818;stroke-width:1.0;" x1="176.5" x2="421.5" y1="219.9609" y2="219.9609"/><text fill="#000000" font-family="sans-serif" font-size="13" lengthAdjust="spacing" textLength="184" x="183.5" y="214.895">setTimes(times,"defaultVar")</text><polygon fill="#181818" points="187.5,229.9609,177.5,233.9609,187.5,237.9609,183.5,233.9609" style="stroke:#181818;stroke-width:1.0;"/><line style="stroke:#181818;stroke-width:1.0;stroke-dasharray:2.0,2.0;" x1="181.5" x2="431.5" y1="233.9609" y2="233.9609"/><polygon fill="#181818" points="319.5,259.0938,329.5,263.0938,319.5,267.0938,323.5,263.0938" style="stroke:#181818;stroke-width:1.0;"/><line style="stroke:#181818;stroke-width:1.0;" x1="176.5" x2="325.5" y1="263.0938" y2="263.0938"/><text fill="#000000" font-family="sans-serif" font-size="13" lengthAdjust="spacing" textLength="75" x="183.5" y="258.0278">getUiData()</text><polygon fill="#181818" points="187.5,273.0938,177.5,277.0938,187.5,281.0938,183.5,277.0938" style="stroke:#181818;stroke-width:1.0;"/><line style="stroke:#181818;stroke-width:1.0;stroke-dasharray:2.0,2.0;" x1="181.5" x2="335.5" y1="277.0938" y2="277.0938"/><line style="stroke:#181818;stroke-width:1.0;" x1="703.5" x2="693.5" y1="306.2266" y2="302.2266"/><line style="stroke:#181818;stroke-width:1.0;" x1="703.5" x2="693.5" y1="306.2266" y2="310.2266"/><line style="stroke:#181818;stroke-width:1.0;" x1="176.5" x2="704.5" y1="306.2266" y2="306.2266"/><text fill="#000000" font-family="sans-serif" font-size="13" lengthAdjust="spacing" textLength="90" x="183.5" y="301.1606">updateState()</text><polygon fill="#181818" points="415.5,331.3594,425.5,335.3594,415.5,339.3594,419.5,335.3594" style="stroke:#181818;stroke-width:1.0;"/><line style="stroke:#181818;stroke-width:1.0;" x1="176.5" x2="421.5" y1="335.3594" y2="335.3594"/><text fill="#000000" font-family="sans-serif" font-size="13" lengthAdjust="spacing" textLength="92" x="183.5" y="330.2935">setUiParams()</text><polygon fill="#181818" points="187.5,345.3594,177.5,349.3594,187.5,353.3594,183.5,349.3594" style="stroke:#181818;stroke-width:1.0;"/><line style="stroke:#181818;stroke-width:1.0;stroke-dasharray:2.0,2.0;" x1="181.5" x2="431.5" y1="349.3594" y2="349.3594"/><polygon fill="#181818" points="94.5,359.3594,84.5,363.3594,94.5,367.3594,90.5,363.3594" style="stroke:#181818;stroke-width:1.0;"/><line style="stroke:#181818;stroke-width:1.0;stroke-dasharray:2.0,2.0;" x1="88.5" x2="175.5" y1="363.3594" y2="363.3594"/><polygon fill="#181818" points="415.5,388.4922,425.5,392.4922,415.5,396.4922,419.5,392.4922" style="stroke:#181818;stroke-width:1.0;"/><line style="stroke:#181818;stroke-width:1.0;" x1="83.5" x2="421.5" y1="392.4922" y2="392.4922"/><text fill="#000000" font-family="sans-serif" font-size="13" lengthAdjust="spacing" textLength="52" x="90.5" y="387.4263">render()</text><polygon fill="#181818" points="593.5,417.625,603.5,421.625,593.5,425.625,597.5,421.625" style="stroke:#181818;stroke-width:1.0;"/><line style="stroke:#181818;stroke-width:1.0;" x1="437.5" x2="599.5" y1="421.625" y2="421.625"/><text fill="#000000" font-family="sans-serif" font-size="13" lengthAdjust="spacing" textLength="52" x="444.5" y="416.5591">render()</text><line style="stroke:#181818;stroke-width:1.0;" x1="616.5" x2="626.5" y1="450.7578" y2="446.7578"/><line style="stroke:#181818;stroke-width:1.0;" x1="616.5" x2="626.5" y1="450.7578" y2="454.7578"/><line style="stroke:#181818;stroke-width:1.0;" x1="615.5" x2="704.5" y1="450.7578" y2="450.7578"/><text fill="#000000" font-family="sans-serif" font-size="13" lengthAdjust="spacing" textLength="66" x="632.5" y="445.6919">getState()</text><polygon fill="#181818" points="448.5,460.7578,438.5,464.7578,448.5,468.7578,444.5,464.7578" style="stroke:#181818;stroke-width:1.0;"/><line style="stroke:#181818;stroke-width:1.0;stroke-dasharray:2.0,2.0;" x1="442.5" x2="609.5" y1="464.7578" y2="464.7578"/><polygon fill="#181818" points="94.5,474.7578,84.5,478.7578,94.5,482.7578,90.5,478.7578" style="stroke:#181818;stroke-width:1.0;"/><line style="stroke:#181818;stroke-width:1.0;stroke-dasharray:2.0,2.0;" x1="88.5" x2="431.5" y1="478.7578" y2="478.7578"/><polygon fill="#181818" points="35,488.7578,25,492.7578,35,496.7578,31,492.7578" style="stroke:#181818;stroke-width:1.0;"/><line style="stroke:#181818;stroke-width:1.0;stroke-dasharray:2.0,2.0;" x1="29" x2="77.5" y1="492.7578" y2="492.7578"/><rect fill="#EEEEEE" height="3" style="stroke:#EEEEEE;stroke-width:1.0;" width="808.5" x="0" y="521.3242"/><line style="stroke:#000000;stroke-width:1.0;" x1="0" x2="808.5" y1="521.3242" y2="521.3242"/><line style="stroke:#000000;stroke-width:1.0;" x1="0" x2="808.5" y1="524.3242" y2="524.3242"/><rect fill="#EEEEEE" height="23.1328" style="stroke:#000000;stroke-width:2.0;" width="160" x="324.25" y="510.7578"/><text fill="#000000" font-family="sans-serif" font-size="13" font-weight="bold" lengthAdjust="spacing" textLength="141" x="330.25" y="526.8247">Interaccion Usuario</text><polygon fill="#181818" points="598.5,561.0234,608.5,565.0234,598.5,569.0234,602.5,565.0234" style="stroke:#181818;stroke-width:1.0;"/><line style="stroke:#181818;stroke-width:1.0;" x1="24" x2="604.5" y1="565.0234" y2="565.0234"/><text fill="#000000" font-family="sans-serif" font-size="13" lengthAdjust="spacing" textLength="66" x="31" y="559.9575">Click on UI</text><polygon fill="#181818" points="448.3803,594.869,438.5,599.1563,448.6114,602.8657,444.4975,598.9829" style="stroke:#181818;stroke-width:1.0;"/><line style="stroke:#181818;stroke-width:1.0;" x1="609.5" x2="437.5" y1="594.1563" y2="599.1563"/><text fill="#000000" font-family="sans-serif" font-size="13" lengthAdjust="spacing" textLength="154" x="454.5" y="589.0903">&#171;Async&#187; NotifyChange()</text><path d="M129,619.1563 L193,619.1563 L193,626.2891 L183,636.2891 L129,636.2891 L129,619.1563 " fill="#FFD700" style="stroke:#000000;stroke-width:1.5;"/><rect fill="none" height="364.1328" style="stroke:#000000;stroke-width:1.5;" width="607.5" x="129" y="619.1563"/><text fill="#000000" font-family="sans-serif" font-size="13" font-weight="bold" lengthAdjust="spacing" textLength="19" x="144" y="632.2231">alt</text><text fill="#000000" font-family="sans-serif" font-size="11" font-weight="bold" lengthAdjust="spacing" textLength="91" x="208" y="631.3667">[Change is UI]</text><line style="stroke:#181818;stroke-width:1.0;" x1="703.5" x2="693.5" y1="657.4219" y2="653.4219"/><line style="stroke:#181818;stroke-width:1.0;" x1="703.5" x2="693.5" y1="657.4219" y2="661.4219"/><line style="stroke:#181818;stroke-width:1.0;" x1="437.5" x2="704.5" y1="657.4219" y2="657.4219"/><text fill="#000000" font-family="sans-serif" font-size="13" lengthAdjust="spacing" textLength="90" x="444.5" y="652.356">updateState()</text><polygon fill="#181818" points="593.5,682.5547,603.5,686.5547,593.5,690.5547,597.5,686.5547" style="stroke:#181818;stroke-width:1.0;"/><line style="stroke:#181818;stroke-width:1.0;" x1="437.5" x2="599.5" y1="686.5547" y2="686.5547"/><text fill="#000000" font-family="sans-serif" font-size="13" lengthAdjust="spacing" textLength="70" x="444.5" y="681.4888">UpdateUI()</text><line style="stroke:#181818;stroke-width:1.0;" x1="616.5" x2="626.5" y1="715.6875" y2="711.6875"/><line style="stroke:#181818;stroke-width:1.0;" x1="616.5" x2="626.5" y1="715.6875" y2="719.6875"/><line style="stroke:#181818;stroke-width:1.0;" x1="615.5" x2="704.5" y1="715.6875" y2="715.6875"/><text fill="#000000" font-family="sans-serif" font-size="13" lengthAdjust="spacing" textLength="66" x="632.5" y="710.6216">getState()</text><polygon fill="#181818" points="448.5,725.6875,438.5,729.6875,448.5,733.6875,444.5,729.6875" style="stroke:#181818;stroke-width:1.0;"/><line style="stroke:#181818;stroke-width:1.0;stroke-dasharray:2.0,2.0;" x1="442.5" x2="609.5" y1="729.6875" y2="729.6875"/><line style="stroke:#000000;stroke-width:1.0;stroke-dasharray:2.0,2.0;" x1="129" x2="736.5" y1="738.6875" y2="738.6875"/><text fill="#000000" font-family="sans-serif" font-size="11" font-weight="bold" lengthAdjust="spacing" textLength="108" x="134" y="748.8979">[Change is Data]</text><polygon fill="#181818" points="192.5,769.625,182.5,773.625,192.5,777.625,188.5,773.625" style="stroke:#181818;stroke-width:1.0;"/><line style="stroke:#181818;stroke-width:1.0;" x1="186.5" x2="426.5" y1="773.625" y2="773.625"/><text fill="#000000" font-family="sans-serif" font-size="13" lengthAdjust="spacing" textLength="127" x="198.5" y="768.5591">NotifyChangeData()</text><polygon fill="#181818" points="319.5,798.7578,329.5,802.7578,319.5,806.7578,323.5,802.7578" style="stroke:#181818;stroke-width:1.0;"/><line style="stroke:#181818;stroke-width:1.0;" x1="181.5" x2="325.5" y1="802.7578" y2="802.7578"/><text fill="#000000" font-family="sans-serif" font-size="13" lengthAdjust="spacing" textLength="131" x="188.5" y="797.6919">getDataForChange()</text><polygon fill="#181818" points="192.5,812.7578,182.5,816.7578,192.5,820.7578,188.5,816.7578" style="stroke:#181818;stroke-width:1.0;"/><line style="stroke:#181818;stroke-width:1.0;stroke-dasharray:2.0,2.0;" x1="186.5" x2="335.5" y1="816.7578" y2="816.7578"/><line style="stroke:#181818;stroke-width:1.0;" x1="703.5" x2="693.5" y1="845.8906" y2="841.8906"/><line style="stroke:#181818;stroke-width:1.0;" x1="703.5" x2="693.5" y1="845.8906" y2="849.8906"/><line style="stroke:#181818;stroke-width:1.0;" x1="181.5" x2="704.5" y1="845.8906" y2="845.8906"/><text fill="#000000" font-family="sans-serif" font-size="13" lengthAdjust="spacing" textLength="90" x="188.5" y="840.8247">updateState()</text><polygon fill="#181818" points="420.5,871.0234,430.5,875.0234,420.5,879.0234,424.5,875.0234" style="stroke:#181818;stroke-width:1.0;"/><line style="stroke:#181818;stroke-width:1.0;" x1="181.5" x2="426.5" y1="875.0234" y2="875.0234"/><text fill="#000000" font-family="sans-serif" font-size="13" lengthAdjust="spacing" textLength="55" x="188.5" y="869.9575">update()</text><polygon fill="#181818" points="593.5,900.1563,603.5,904.1563,593.5,908.1563,597.5,904.1563" style="stroke:#181818;stroke-width:1.0;"/><line style="stroke:#181818;stroke-width:1.0;" x1="442.5" x2="599.5" y1="904.1563" y2="904.1563"/><text fill="#000000" font-family="sans-serif" font-size="13" lengthAdjust="spacing" textLength="70" x="449.5" y="899.0903">UpdateUI()</text><line style="stroke:#181818;stroke-width:1.0;" x1="616.5" x2="626.5" y1="933.2891" y2="929.2891"/><line style="stroke:#181818;stroke-width:1.0;" x1="616.5" x2="626.5" y1="933.2891" y2="937.2891"/><line style="stroke:#181818;stroke-width:1.0;" x1="615.5" x2="704.5" y1="933.2891" y2="933.2891"/><text fill="#000000" font-family="sans-serif" font-size="13" lengthAdjust="spacing" textLength="66" x="632.5" y="928.2231">getState()</text><polygon fill="#181818" points="453.5,943.2891,443.5,947.2891,453.5,951.2891,449.5,947.2891" style="stroke:#181818;stroke-width:1.0;"/><line style="stroke:#181818;stroke-width:1.0;stroke-dasharray:2.0,2.0;" x1="447.5" x2="609.5" y1="947.2891" y2="947.2891"/><polygon fill="#181818" points="192.5,957.2891,182.5,961.2891,192.5,965.2891,188.5,961.2891" style="stroke:#181818;stroke-width:1.0;"/><line style="stroke:#181818;stroke-width:1.0;stroke-dasharray:2.0,2.0;" x1="186.5" x2="426.5" y1="961.2891" y2="961.2891"/><polygon fill="#181818" points="415.5,971.2891,425.5,975.2891,415.5,979.2891,419.5,975.2891" style="stroke:#181818;stroke-width:1.0;"/><line style="stroke:#181818;stroke-width:1.0;stroke-dasharray:2.0,2.0;" x1="176.5" x2="421.5" y1="975.2891" y2="975.2891"/><polygon fill="#181818" points="593.5,1007.4219,603.5,1011.4219,593.5,1015.4219,597.5,1011.4219" style="stroke:#181818;stroke-width:1.0;"/><line style="stroke:#181818;stroke-width:1.0;" x1="437.5" x2="599.5" y1="1011.4219" y2="1011.4219"/><text fill="#000000" font-family="sans-serif" font-size="13" lengthAdjust="spacing" textLength="58" x="444.5" y="1006.356">Refresh()</text><polygon fill="#181818" points="443.5,1021.4219,433.5,1025.4219,443.5,1029.4219,439.5,1025.4219" style="stroke:#181818;stroke-width:1.0;"/><line style="stroke:#181818;stroke-width:1.0;stroke-dasharray:2.0,2.0;" x1="437.5" x2="609.5" y1="1025.4219" y2="1025.4219"/><polygon fill="#181818" points="34.8945,1065.3003,25,1069.5547,35.099,1073.2977,30.998,1069.4013" style="stroke:#181818;stroke-width:1.0;"/><line style="stroke:#181818;stroke-width:1.0;" x1="609.5" x2="24" y1="1054.5547" y2="1069.5547"/><text fill="#000000" font-family="sans-serif" font-size="13" lengthAdjust="spacing" textLength="148" x="41" y="1049.4888">&#171;Async&#187; Updated Html</text><!--SRC=[dLHTRzim37pNho0IO73GPaC7xCL80kG3sm8CGx7EVLTjEk7gI8OaT-s_7sN7gUocQLQzMAQEH_9qjaoTDf1ODE9EFy9WNfO36FwWpTOjYWf5AOsZb4gf793AyB4JkIMh3QTqWYlfv0sQ1qeHf8MCNmMg39Y_gR7K1hd8VBMwMdpkf2wanJvTGi9JtF4Ht3ZfQbBhDmVM4EveX_RZ7-jHzLu8FnsCPqt_S74HmmOTV1B0gudnOJjA3AbMEMqgWz6eXlZLddfapVfCqnOyO0swogYZgVlvwcIBxhTFZMg2oq66kQmATolDO7GEbnUbxI8XBtfqJjwiqIw6gcG6h1LzPT1UjmbTIoDtzfmohTfTZGD2mtU79g1gpnYMK5to1OJZaycuxP_7xZSVjBFVxXzYEeMrScXacf9MxFTA6j8mdHxCaL0CouBIU_3dQy75nhFeooXiUZAPsoULieO_jQFyQRcLQjCs80it_AQB38RiRvKN-YyQ_mb1WmAoJ0j7vdtZHbuAazIuPFrEQR3WBsbuJUe-QCtxvrZ9mvNwmk7KFSETSgU7VjMcezOh3le_ivumR9FGmvujPxZUbFR4ABrGU0ag4yVR-OMvGRkDHX0O6KI6CdNqu7zx7nZAthnYSthtnl3iosQM3BwxNI7-0G00]--></g></svg>