<?xml version="1.0" encoding="us-ascii" standalone="no"?><svg xmlns="http://www.w3.org/2000/svg" xmlns:xlink="http://www.w3.org/1999/xlink" contentStyleType="text/css" height="1099px" preserveAspectRatio="none" style="width:742px;height:1099px;background:#FFFFFF;" version="1.1" viewBox="0 0 742 1099" width="742px" zoomAndPan="magnify"><defs/><g><!--cluster sc-frontal--><g id="cluster_sc-frontal"><polygon fill="none" points="404,138.8,414,128.8,556,128.8,556,237.39,546,247.39,404,247.39,404,138.8" style="stroke:#181818;stroke-width:1.0;"/><line style="stroke:#181818;stroke-width:1.0;" x1="546" x2="556" y1="138.8" y2="128.8"/><line style="stroke:#181818;stroke-width:1.0;" x1="404" x2="546" y1="138.8" y2="138.8"/><line style="stroke:#181818;stroke-width:1.0;" x1="546" x2="546" y1="138.8" y2="247.39"/><text fill="#000000" font-family="sans-serif" font-size="14" font-weight="bold" lengthAdjust="spacing" textLength="76" x="438" y="154.7951">sc-frontal</text></g><!--cluster sc-aemet-1--><g id="cluster_sc-aemet-1"><polygon fill="none" points="16,290.39,26,280.39,512,280.39,512,541.28,502,551.28,16,551.28,16,290.39" style="stroke:#181818;stroke-width:1.0;"/><line style="stroke:#181818;stroke-width:1.0;" x1="502" x2="512" y1="290.39" y2="280.39"/><line style="stroke:#181818;stroke-width:1.0;" x1="16" x2="502" y1="290.39" y2="290.39"/><line style="stroke:#181818;stroke-width:1.0;" x1="502" x2="502" y1="290.39" y2="551.28"/><text fill="#000000" font-family="sans-serif" font-size="14" font-weight="bold" lengthAdjust="spacing" textLength="89" x="215.5" y="306.3851">sc-aemet-1</text></g><!--cluster visoresDev--><g id="cluster_visoresDev"><rect fill="none" height="97.3" rx="2.5" ry="2.5" style="stroke:#181818;stroke-width:1.0;" width="448" x="40" y="429.98"/><path d="M108,429.98 L108,439.2769 L98,449.2769 L40,449.2769 " fill="none" style="stroke:#181818;stroke-width:1.0;"/><text fill="#000000" font-family="sans-serif" font-size="14" font-weight="bold" lengthAdjust="spacing" textLength="58" x="43" y="443.9751">visores</text></g><!--cluster sc-aemet-prod--><g id="cluster_sc-aemet-prod"><polygon fill="none" points="371,640.13,381,630.13,725,630.13,725,895.87,715,905.87,371,905.87,371,640.13" style="stroke:#181818;stroke-width:1.0;"/><line style="stroke:#181818;stroke-width:1.0;" x1="715" x2="725" y1="640.13" y2="630.13"/><line style="stroke:#181818;stroke-width:1.0;" x1="371" x2="715" y1="640.13" y2="640.13"/><line style="stroke:#181818;stroke-width:1.0;" x1="715" x2="715" y1="640.13" y2="905.87"/><text fill="#000000" font-family="sans-serif" font-size="14" font-weight="bold" lengthAdjust="spacing" textLength="116" x="486" y="656.1251">sc-aemet-prod</text></g><!--cluster visoresProd--><g id="cluster_visoresProd"><rect fill="none" height="97.29" rx="2.5" ry="2.5" style="stroke:#181818;stroke-width:1.0;" width="306" x="395" y="784.58"/><path d="M463,784.58 L463,793.8769 L453,803.8769 L395,803.8769 " fill="none" style="stroke:#181818;stroke-width:1.0;"/><text fill="#000000" font-family="sans-serif" font-size="14" font-weight="bold" lengthAdjust="spacing" textLength="58" x="398" y="798.5751">visores</text></g><!--cluster genoma--><g id="cluster_genoma"><polygon fill="none" points="36,594.28,46,584.28,347,584.28,347,1072.17,337,1082.17,36,1082.17,36,594.28" style="stroke:#181818;stroke-width:1.0;"/><line style="stroke:#181818;stroke-width:1.0;" x1="337" x2="347" y1="594.28" y2="584.28"/><line style="stroke:#181818;stroke-width:1.0;" x1="36" x2="337" y1="594.28" y2="594.28"/><line style="stroke:#181818;stroke-width:1.0;" x1="337" x2="337" y1="594.28" y2="1082.17"/><text fill="#000000" font-family="sans-serif" font-size="14" font-weight="bold" lengthAdjust="spacing" textLength="63" x="156" y="610.2751">genoma</text></g><!--cluster data--><g id="cluster_data"><path d="M62.5,648.28 L97.5,648.28 A3.75,3.75 0 0 1 100,650.78 L107,670.5769 L151.5,670.5769 A2.5,2.5 0 0 1 154,673.0769 L154,733.08 A2.5,2.5 0 0 1 151.5,735.58 L62.5,735.58 A2.5,2.5 0 0 1 60,733.08 L60,650.78 A2.5,2.5 0 0 1 62.5,648.28 " fill="none" style="stroke:#000000;stroke-width:1.5;"/><line style="stroke:#000000;stroke-width:1.5;" x1="60" x2="107" y1="670.5769" y2="670.5769"/><text fill="#000000" font-family="sans-serif" font-size="14" font-weight="bold" lengthAdjust="spacing" textLength="34" x="64" y="663.2751">data</text></g><!--cluster web--><g id="cluster_web"><path d="M188.5,640.28 L223.5,640.28 A3.75,3.75 0 0 1 226,642.78 L233,662.5769 L312.5,662.5769 A2.5,2.5 0 0 1 315,665.0769 L315,741.08 A2.5,2.5 0 0 1 312.5,743.58 L188.5,743.58 A2.5,2.5 0 0 1 186,741.08 L186,642.78 A2.5,2.5 0 0 1 188.5,640.28 " fill="none" style="stroke:#000000;stroke-width:1.5;"/><line style="stroke:#000000;stroke-width:1.5;" x1="186" x2="233" y1="662.5769" y2="662.5769"/><text fill="#000000" font-family="sans-serif" font-size="14" font-weight="bold" lengthAdjust="spacing" textLength="34" x="190" y="655.2751">web</text></g><!--cluster prod--><g id="cluster_prod"><path d="M188.5,946.87 L226.5,946.87 A3.75,3.75 0 0 1 229,949.37 L236,969.1669 L312.5,969.1669 A2.5,2.5 0 0 1 315,971.6669 L315,1047.67 A2.5,2.5 0 0 1 312.5,1050.17 L188.5,1050.17 A2.5,2.5 0 0 1 186,1047.67 L186,949.37 A2.5,2.5 0 0 1 188.5,946.87 " fill="none" style="stroke:#000000;stroke-width:1.5;"/><line style="stroke:#000000;stroke-width:1.5;" x1="186" x2="236" y1="969.1669" y2="969.1669"/><text fill="#000000" font-family="sans-serif" font-size="14" font-weight="bold" lengthAdjust="spacing" textLength="37" x="190" y="961.8651">prod</text></g><!--entity frontalHttp--><g id="elem_frontalHttp"><rect fill="#F1F1F1" height="62.5938" rx="2.5" ry="2.5" style="stroke:#181818;stroke-width:0.5;" width="91" x="434.5" y="168.8"/><rect fill="#F1F1F1" height="10" style="stroke:#181818;stroke-width:0.5;" width="15" x="505.5" y="173.8"/><rect fill="#F1F1F1" height="2" style="stroke:#181818;stroke-width:0.5;" width="4" x="503.5" y="175.8"/><rect fill="#F1F1F1" height="2" style="stroke:#181818;stroke-width:0.5;" width="4" x="503.5" y="179.8"/><text fill="#000000" font-family="sans-serif" font-size="14" lengthAdjust="spacing" textLength="47" x="449.5" y="201.7951">Frontal</text><text fill="#000000" font-family="sans-serif" font-size="14" lengthAdjust="spacing" textLength="51" x="449.5" y="218.092">HTTP/S</text></g><!--entity frontalDev--><g id="elem_frontalDev"><rect fill="#F1F1F1" height="62.5938" rx="2.5" ry="2.5" style="stroke:#181818;stroke-width:0.5;" width="87" x="371.5" y="320.39"/><rect fill="#F1F1F1" height="10" style="stroke:#181818;stroke-width:0.5;" width="15" x="438.5" y="325.39"/><rect fill="#F1F1F1" height="2" style="stroke:#181818;stroke-width:0.5;" width="4" x="436.5" y="327.39"/><rect fill="#F1F1F1" height="2" style="stroke:#181818;stroke-width:0.5;" width="4" x="436.5" y="331.39"/><text fill="#000000" font-family="sans-serif" font-size="14" lengthAdjust="spacing" textLength="47" x="386.5" y="353.3851">Frontal</text><text fill="#000000" font-family="sans-serif" font-size="14" lengthAdjust="spacing" textLength="27" x="386.5" y="369.682">Dev</text></g><!--entity jobDev--><g id="elem_jobDev"><rect fill="#F1F1F1" height="46.2969" rx="2.5" ry="2.5" style="stroke:#181818;stroke-width:0.5;" width="107" x="55.5" y="464.98"/><rect fill="#F1F1F1" height="10" style="stroke:#181818;stroke-width:0.5;" width="15" x="142.5" y="469.98"/><rect fill="#F1F1F1" height="2" style="stroke:#181818;stroke-width:0.5;" width="4" x="140.5" y="471.98"/><rect fill="#F1F1F1" height="2" style="stroke:#181818;stroke-width:0.5;" width="4" x="140.5" y="475.98"/><text fill="#000000" font-family="sans-serif" font-size="14" lengthAdjust="spacing" textLength="67" x="70.5" y="497.9751">job [visor]</text></g><!--entity datosDev--><g id="elem_datosDev"><rect fill="#F1F1F1" height="46.2969" rx="2.5" ry="2.5" style="stroke:#181818;stroke-width:0.5;" width="125" x="197.5" y="464.98"/><rect fill="#F1F1F1" height="10" style="stroke:#181818;stroke-width:0.5;" width="15" x="302.5" y="469.98"/><rect fill="#F1F1F1" height="2" style="stroke:#181818;stroke-width:0.5;" width="4" x="300.5" y="471.98"/><rect fill="#F1F1F1" height="2" style="stroke:#181818;stroke-width:0.5;" width="4" x="300.5" y="475.98"/><text fill="#000000" font-family="sans-serif" font-size="14" lengthAdjust="spacing" textLength="85" x="212.5" y="497.9751">datos [visor]</text></g><!--entity webDev--><g id="elem_webDev"><rect fill="#F1F1F1" height="46.2969" rx="2.5" ry="2.5" style="stroke:#181818;stroke-width:0.5;" width="115" x="357.5" y="464.98"/><rect fill="#F1F1F1" height="10" style="stroke:#181818;stroke-width:0.5;" width="15" x="452.5" y="469.98"/><rect fill="#F1F1F1" height="2" style="stroke:#181818;stroke-width:0.5;" width="4" x="450.5" y="471.98"/><rect fill="#F1F1F1" height="2" style="stroke:#181818;stroke-width:0.5;" width="4" x="450.5" y="475.98"/><text fill="#000000" font-family="sans-serif" font-size="14" lengthAdjust="spacing" textLength="75" x="372.5" y="497.9751">web [visor]</text></g><!--entity frontalProd--><g id="elem_frontalProd"><rect fill="#F1F1F1" height="62.5938" rx="2.5" ry="2.5" style="stroke:#181818;stroke-width:0.5;" width="87" x="502.5" y="670.13"/><rect fill="#F1F1F1" height="10" style="stroke:#181818;stroke-width:0.5;" width="15" x="569.5" y="675.13"/><rect fill="#F1F1F1" height="2" style="stroke:#181818;stroke-width:0.5;" width="4" x="567.5" y="677.13"/><rect fill="#F1F1F1" height="2" style="stroke:#181818;stroke-width:0.5;" width="4" x="567.5" y="681.13"/><text fill="#000000" font-family="sans-serif" font-size="14" lengthAdjust="spacing" textLength="47" x="517.5" y="703.1251">Frontal</text><text fill="#000000" font-family="sans-serif" font-size="14" lengthAdjust="spacing" textLength="32" x="517.5" y="719.422">Prod</text></g><!--entity datosProd--><g id="elem_datosProd"><rect fill="#F1F1F1" height="46.2969" rx="2.5" ry="2.5" style="stroke:#181818;stroke-width:0.5;" width="125" x="410.5" y="819.58"/><rect fill="#F1F1F1" height="10" style="stroke:#181818;stroke-width:0.5;" width="15" x="515.5" y="824.58"/><rect fill="#F1F1F1" height="2" style="stroke:#181818;stroke-width:0.5;" width="4" x="513.5" y="826.58"/><rect fill="#F1F1F1" height="2" style="stroke:#181818;stroke-width:0.5;" width="4" x="513.5" y="830.58"/><text fill="#000000" font-family="sans-serif" font-size="14" lengthAdjust="spacing" textLength="85" x="425.5" y="852.5751">datos [visor]</text></g><!--entity webProd--><g id="elem_webProd"><rect fill="#F1F1F1" height="46.2969" rx="2.5" ry="2.5" style="stroke:#181818;stroke-width:0.5;" width="115" x="570.5" y="819.58"/><rect fill="#F1F1F1" height="10" style="stroke:#181818;stroke-width:0.5;" width="15" x="665.5" y="824.58"/><rect fill="#F1F1F1" height="2" style="stroke:#181818;stroke-width:0.5;" width="4" x="663.5" y="826.58"/><rect fill="#F1F1F1" height="2" style="stroke:#181818;stroke-width:0.5;" width="4" x="663.5" y="830.58"/><text fill="#000000" font-family="sans-serif" font-size="14" lengthAdjust="spacing" textLength="75" x="585.5" y="852.5751">web [visor]</text></g><!--entity dataSt--><g id="elem_dataSt"><rect fill="#F1F1F1" height="36.2969" rx="35" ry="35" style="stroke:#181818;stroke-width:0.5;" width="62" x="76" y="683.28"/><text fill="#000000" font-family="sans-serif" font-size="14" lengthAdjust="spacing" textLength="42" x="86" y="706.2751">[visor]</text></g><!--entity webSt--><g id="elem_webSt"><rect fill="#F1F1F1" height="36.2969" rx="35" ry="35" style="stroke:#181818;stroke-width:0.5;" width="62" x="229" y="683.28"/><text fill="#000000" font-family="sans-serif" font-size="14" lengthAdjust="spacing" textLength="42" x="239" y="706.2751">[visor]</text></g><!--entity prodSt--><g id="elem_prodSt"><rect fill="#F1F1F1" height="36.2969" rx="35" ry="35" style="stroke:#181818;stroke-width:0.5;" width="62" x="229" y="989.87"/><text fill="#000000" font-family="sans-serif" font-size="14" lengthAdjust="spacing" textLength="42" x="239" y="1012.8651">[visor]</text></g><!--entity User--><g id="elem_User"><ellipse cx="480" cy="14" fill="#F1F1F1" rx="8" ry="8" style="stroke:#181818;stroke-width:0.5;"/><path d="M480,22 L480,49 M467,30 L493,30 M480,49 L467,64 M480,49 L493,64 " fill="none" style="stroke:#181818;stroke-width:0.5;"/><text fill="#000000" font-family="sans-serif" font-size="14" lengthAdjust="spacing" textLength="32" x="464" y="78.4951">User</text></g><!--link User to frontalHttp--><g id="link_User_frontalHttp"><path d="M480,82.03 C480,108.64 480,137.93 480,162.78 " fill="none" id="User-to-frontalHttp" style="stroke:#181818;stroke-width:1.0;"/><polygon fill="#181818" points="480,168.78,484,159.78,480,163.78,476,159.78,480,168.78" style="stroke:#181818;stroke-width:1.0;"/></g><!--link frontalHttp to frontalDev--><g id="link_frontalHttp_frontalDev"><path d="M466.69,231.73 C455.47,257.54 441.891,288.787 430.681,314.587 " fill="none" id="frontalHttp-to-frontalDev" style="stroke:#181818;stroke-width:1.0;"/><polygon fill="#181818" points="428.29,320.09,435.5452,313.4295,430.2825,315.5042,428.2079,310.2415,428.29,320.09" style="stroke:#181818;stroke-width:1.0;"/></g><!--link frontalDev to datosDev--><g id="link_frontalDev_datosDev"><path d="M379.83,383.19 C351.25,407.99 316.1124,438.4585 290.3924,460.7685 " fill="none" id="frontalDev-to-datosDev" style="stroke:#181818;stroke-width:1.0;"/><polygon fill="#181818" points="285.86,464.7,295.2797,461.8243,289.637,461.4237,290.0377,455.7811,285.86,464.7" style="stroke:#181818;stroke-width:1.0;"/></g><!--link frontalDev to webDev--><g id="link_frontalDev_webDev"><path d="M415,383.19 C415,407.99 415,436.39 415,458.7 " fill="none" id="frontalDev-to-webDev" style="stroke:#181818;stroke-width:1.0;"/><polygon fill="#181818" points="415,464.7,419,455.7,415,459.7,411,455.7,415,464.7" style="stroke:#181818;stroke-width:1.0;"/></g><!--link datosDev to webSt--><g id="link_datosDev_webSt"><path d="M260,511.74 C260,554.12 260,638.63 260,676.83 " fill="none" id="datosDev-to-webSt" style="stroke:#181818;stroke-width:1.0;"/><polygon fill="#181818" points="260,682.83,264,673.83,260,677.83,256,673.83,260,682.83" style="stroke:#181818;stroke-width:1.0;"/></g><!--link webDev to webSt--><g id="link_webDev_webSt"><path d="M398.41,511.74 C367.33,554.12 304.4787,639.792 276.4587,677.992 " fill="none" id="webDev-to-webSt" style="stroke:#181818;stroke-width:1.0;"/><polygon fill="#181818" points="272.91,682.83,281.4584,677.9388,275.8673,678.7983,275.0077,673.2071,272.91,682.83" style="stroke:#181818;stroke-width:1.0;"/></g><!--link jobDev to webSt--><g id="link_jobDev_webSt"><path d="M127.23,511.55 C140.54,526.71 159.73,546.28 180,559.28 C198,570.82 210.55,560.52 225,576.28 C252.55,606.32 258.348,650.3962 259.548,676.8362 " fill="none" id="jobDev-to-webSt" style="stroke:#181818;stroke-width:1.0;"/><polygon fill="#181818" points="259.82,682.83,263.4078,673.6579,259.5933,677.8351,255.4161,674.0206,259.82,682.83" style="stroke:#181818;stroke-width:1.0;"/></g><!--link jobDev to dataSt--><g id="link_jobDev_dataSt"><path d="M108.79,511.74 C108.38,554.12 107.5865,638.6303 107.2265,676.8303 " fill="none" id="jobDev-to-dataSt" style="stroke:#181818;stroke-width:1.0;"/><polygon fill="#181818" points="107.17,682.83,111.2546,673.8681,107.2171,677.8302,103.255,673.7927,107.17,682.83" style="stroke:#181818;stroke-width:1.0;"/></g><!--link frontalHttp to frontalProd--><g id="link_frontalHttp_frontalProd"><path d="M496.58,231.84 C502.45,244.11 508.47,258.59 512,272.39 C549.15,417.55 549.0727,592.6419 547.2627,663.7519 " fill="none" id="frontalHttp-to-frontalProd" style="stroke:#181818;stroke-width:1.0;"/><polygon fill="#181818" points="547.11,669.75,551.3377,660.8547,547.2372,664.7516,543.3403,660.6511,547.11,669.75" style="stroke:#181818;stroke-width:1.0;"/></g><!--link frontalProd to datosProd--><g id="link_frontalProd_datosProd"><path d="M529.98,733 C516.3,759.11 499.7255,790.7358 487.4655,814.1258 " fill="none" id="frontalProd-to-datosProd" style="stroke:#181818;stroke-width:1.0;"/><polygon fill="#181818" points="484.68,819.44,492.401,813.3256,487.0012,815.0115,485.3154,809.6117,484.68,819.44" style="stroke:#181818;stroke-width:1.0;"/></g><!--link frontalProd to webProd--><g id="link_frontalProd_webProd"><path d="M564,733 C579.36,759.11 598.066,790.8795 611.836,814.2695 " fill="none" id="frontalProd-to-webProd" style="stroke:#181818;stroke-width:1.0;"/><polygon fill="#181818" points="614.88,819.44,613.7611,809.6549,612.3434,815.1312,606.867,813.7135,614.88,819.44" style="stroke:#181818;stroke-width:1.0;"/></g><!--link datosProd to prodSt--><g id="link_datosProd_prodSt"><path d="M443.83,866.09 C400.99,898.93 326.6919,955.8898 287.7119,985.7698 " fill="none" id="datosProd-to-prodSt" style="stroke:#181818;stroke-width:1.0;"/><polygon fill="#181818" points="282.95,989.42,292.5264,987.1193,286.9183,986.3781,287.6594,980.77,282.95,989.42" style="stroke:#181818;stroke-width:1.0;"/></g><!--link webProd to prodSt--><g id="link_webProd_prodSt"><path d="M609.02,866.11 C594.95,881.46 574.54,901.26 553,913.87 C465.72,965 353.0099,990.3787 297.2699,1000.6887 " fill="none" id="webProd-to-prodSt" style="stroke:#181818;stroke-width:1.0;"/><polygon fill="#181818" points="291.37,1001.78,300.9474,1004.0764,296.2866,1000.8706,299.4924,996.2098,291.37,1001.78" style="stroke:#181818;stroke-width:1.0;"/></g><!--link web to prod--><g id="link_web_prod"><path d="M194,743.6272 C194,744.459 194,745.3006 194,746.1517 C194,747.8537 194,749.5934 194,751.3686 C194,779.7716 194,817.2544 194,854.7363 C194,873.4772 194,892.2179 194,909.8233 C194,918.6259 194,927.1448 194,935.2379 C194,937.2612 194,939.2579 194,941.2257 C194,942.2097 194,943.1864 194,944.1556 C194,944.6402 194,945.123 194,945.6038 C194,945.8443 194,940.0842 194,940.3237 " fill="none" id="web-to-prod" style="stroke:#181818;stroke-width:1.0;stroke-dasharray:7.0,7.0;"/><polygon fill="#181818" points="194,946.3237,198,937.3237,194,941.3237,190,937.3237,194,946.3237" style="stroke:#181818;stroke-width:1.0;"/><text fill="#000000" font-family="sans-serif" font-size="13" lengthAdjust="spacing" textLength="87" x="195" y="847.2869">Copia Estable</text></g><!--SRC=[ZL8zRuGm3DtpAonsMdNjqAKVkX7fhbFRmGVcT1N4A8ckGyL_Rn9221HwPK3sUy_FSHp95O4kyrgnDDXy2x1VoMt7agI1x6N0t-NkS2XkzncWXg3T6TE9NiZWWDIIoU-s7PxeafRRr4jhXIt1vQnPaNPy22q_U2tyFla8RrxpuUriFbejb1KQrZEjHpRKNpJtjVcexE7Nd9tYQdlKmhBfh2x_SzWYslrlXcXuVOWexSSXJYIvnQ5TpKr5ofdYr5yRLdWYo1PzSM-2Kr9gMrofj8grmcusysgbayJINWWihGfUDIdXVf3d3xFNcCGfv_OuXPw9Bs61XwsFz8ZPGmnC0WmFRnq8bxLr8B-J99wEjCgCMumAZuRB2MGAEGpocm3SmoDtPuHdRV3OaFW1]--></g></svg>