<svg version="1.1" xmlns="http://www.w3.org/2000/svg" viewBox="0 0 265 380.36075887112906" width="265" height="380.36075887112906">
  <!-- svg-source:excalidraw -->
  
  <defs>
    <style class="style-fonts">
      @font-face {
        font-family: "Virgil";
        src: url("https://unpkg.com/@excalidraw/excalidraw@0.15.3/dist/excalidraw-assets/Virgil.woff2");
      }
      @font-face {
        font-family: "Cascadia";
        src: url("https://unpkg.com/@excalidraw/excalidraw@0.15.3/dist/excalidraw-assets/Cascadia.woff2");
      }
    </style>
  </defs>
  <rect x="0" y="0" width="265" height="380.36075887112906" fill="#ffffff"></rect><g stroke-linecap="round" transform="translate(10 10) rotate(0 122.5 180)"><path d="M7.86 8.16 C7.86 8.16, 7.86 8.16, 7.86 8.16 M7.86 8.16 C7.86 8.16, 7.86 8.16, 7.86 8.16 M3.66 19.09 C7.1 14.54, 9.58 11.17, 18.1 2.48 M3.66 19.09 C9.53 12.27, 15.47 6.1, 18.1 2.48 M2.75 26.24 C11.16 18.39, 16.17 9.2, 24.4 1.33 M2.75 26.24 C8.54 19.6, 15.45 12.06, 24.4 1.33 M2.48 32.64 C15.35 20.51, 24.41 8.41, 30.7 0.18 M2.48 32.64 C7.72 26.69, 14.71 19.67, 30.7 0.18 M2.88 38.28 C10.11 30.42, 15.45 20.69, 34.37 2.05 M2.88 38.28 C14.81 22.89, 28.12 9.74, 34.37 2.05 M2.62 44.68 C11.03 32.88, 21.57 21.45, 39.36 2.41 M2.62 44.68 C13.24 33.43, 23.73 19.89, 39.36 2.41 M2.36 51.07 C19.38 31.25, 34.33 11.49, 45 2.02 M2.36 51.07 C16.49 34.59, 31.35 17.69, 45 2.02 M2.75 56.72 C20.78 38.96, 34.05 17.15, 49.99 2.38 M2.75 56.72 C21.08 35.93, 38.76 14.98, 49.99 2.38 M2.49 63.11 C16.71 46.38, 30.44 31.1, 55.63 1.98 M2.49 63.11 C16.14 46.89, 30.62 32.59, 55.63 1.98 M2.88 68.76 C20.28 47.42, 39 25.24, 60.62 2.34 M2.88 68.76 C26.48 41.32, 48.53 15.08, 60.62 2.34 M2.62 75.16 C23.05 47.47, 48.26 24.58, 66.26 1.95 M2.62 75.16 C27.22 46.67, 51.58 16.7, 66.26 1.95 M2.36 81.55 C15.31 64.56, 29.84 49.1, 71.25 2.31 M2.36 81.55 C17.66 63.64, 35.02 43.6, 71.25 2.31 M2.76 87.2 C22.16 65.94, 42.37 44.55, 76.89 1.91 M2.76 87.2 C21.28 64.68, 40.46 44.34, 76.89 1.91 M2.49 93.59 C22.3 74.92, 39.6 51.12, 81.88 2.27 M2.49 93.59 C31.11 60.74, 59.6 28.67, 81.88 2.27 M2.23 99.99 C22.66 79.52, 38.75 57.23, 87.52 1.88 M2.23 99.99 C20.37 80.14, 38.06 60.31, 87.52 1.88 M2.63 105.64 C34.8 69.52, 65.94 34.25, 92.51 2.24 M2.63 105.64 C39.94 65.42, 75.12 24.63, 92.51 2.24 M2.37 112.03 C25.54 83.03, 50.25 58.44, 98.15 1.85 M2.37 112.03 C31.3 80.83, 59.1 49.13, 98.15 1.85 M2.76 117.68 C38.24 74.75, 73.43 33.24, 103.14 2.21 M2.76 117.68 C39.83 75.71, 75.75 33.03, 103.14 2.21 M2.5 124.07 C37.21 86.55, 71.88 45.49, 108.78 1.81 M2.5 124.07 C26.93 95.43, 52.87 64.6, 108.78 1.81 M2.24 130.47 C47.21 81.68, 90.15 32.29, 113.77 2.17 M2.24 130.47 C31.13 98.31, 58.73 68.1, 113.77 2.17 M2.63 136.11 C48.93 84.81, 92.31 33.46, 119.41 1.78 M2.63 136.11 C31.93 102.55, 58.59 69.86, 119.41 1.78 M2.37 142.51 C48.5 90.54, 92.76 39.63, 124.4 2.14 M2.37 142.51 C49.37 88.33, 97.34 34.99, 124.4 2.14 M2.77 148.16 C55.47 91.09, 103.9 30.91, 130.04 1.74 M2.77 148.16 C48.87 96.29, 94.06 46.11, 130.04 1.74 M2.5 154.55 C54.87 95.42, 106.9 35.24, 135.03 2.1 M2.5 154.55 C42.67 108.29, 84.08 61.7, 135.03 2.1 M2.24 160.95 C35.38 121.53, 67.71 83.09, 140.67 1.71 M2.24 160.95 C43.19 112.08, 86.52 61.72, 140.67 1.71 M2.64 166.59 C50.82 110.51, 100.27 56.44, 145.66 2.07 M2.64 166.59 C45.84 117.52, 89.66 66.55, 145.66 2.07 M2.38 172.99 C41.98 130.44, 77.93 85.31, 150.65 2.43 M2.38 172.99 C48.4 116.51, 96.42 63.71, 150.65 2.43 M2.11 179.39 C46.51 133.01, 87.2 85.26, 156.29 2.03 M2.11 179.39 C42 134.61, 80.42 90.66, 156.29 2.03 M2.51 185.03 C45.39 135.51, 87.46 90.43, 161.28 2.39 M2.51 185.03 C43.98 137.04, 85.07 89.5, 161.28 2.39 M2.25 191.43 C38.94 146.95, 75.52 108.22, 166.92 2 M2.25 191.43 C63.35 120.87, 125.94 48.69, 166.92 2 M2.64 197.07 C62.81 127.08, 123.11 60.18, 171.91 2.36 M2.64 197.07 C51.4 140.76, 98.42 86.57, 171.91 2.36 M2.38 203.47 C35.35 163.7, 72.95 122.78, 177.55 1.96 M2.38 203.47 C56.73 142, 108.67 83.17, 177.55 1.96 M2.12 209.87 C58.71 143.93, 117.38 75.05, 182.54 2.32 M2.12 209.87 C38.08 166.64, 75.04 125.15, 182.54 2.32 M2.51 215.51 C41.52 171.92, 80.84 126.11, 188.18 1.93 M2.51 215.51 C75.74 131.03, 150.19 44.48, 188.18 1.93 M2.25 221.91 C41.26 176.48, 81.22 131.53, 193.17 2.29 M2.25 221.91 C64.86 151.39, 126.6 79.94, 193.17 2.29 M1.99 228.31 C43.64 183.44, 84.29 135.33, 198.81 1.9 M1.99 228.31 C48.41 176.5, 93.24 123.3, 198.81 1.9 M2.39 233.95 C70.82 152.28, 141.59 71.81, 203.8 2.26 M2.39 233.95 C42.55 187.5, 83.4 140.55, 203.8 2.26 M2.12 240.35 C73.31 159.34, 144.25 74.96, 209.44 1.86 M2.12 240.35 C70.33 164.89, 138.15 87.38, 209.44 1.86 M2.52 245.99 C80.83 158.87, 157.98 71.88, 215.08 1.47 M2.52 245.99 C62.49 177.61, 123.36 107.03, 215.08 1.47 M2.26 252.39 C76.2 163.14, 151.72 77.41, 219.41 2.58 M2.26 252.39 C84.13 160.61, 165.13 66.32, 219.41 2.58 M2 258.79 C74.93 174.63, 147.86 88.91, 224.4 2.94 M2 258.79 C64.46 189.13, 125.04 119.54, 224.4 2.94 M2.39 264.43 C74.57 181.11, 147.78 96.4, 228.73 4.06 M2.39 264.43 C59.84 198.03, 116.5 132.3, 228.73 4.06 M2.13 270.83 C56.89 210.89, 109.21 149.81, 233.06 5.17 M2.13 270.83 C84.1 176.53, 165.8 83.31, 233.06 5.17 M2.52 276.47 C85.49 182.75, 165.69 88.54, 236.08 7.79 M2.52 276.47 C93.35 170.16, 186.4 63.55, 236.08 7.79 M2.26 282.87 C72.15 200.75, 140.33 121.16, 239.1 10.42 M2.26 282.87 C88.33 181.66, 176.9 80.76, 239.1 10.42 M2 289.27 C72.92 209.64, 141.71 130.67, 241.46 13.8 M2 289.27 C57.93 226.74, 112.17 164.62, 241.46 13.8 M2.4 294.91 C65.15 222.7, 129.73 149.8, 243.17 17.93 M2.4 294.91 C63.19 223.12, 126.51 149.86, 243.17 17.93 M2.13 301.31 C95.21 196.83, 185.57 90.8, 243.56 23.57 M2.13 301.31 C79.31 212.15, 158.79 121.14, 243.56 23.57 M1.87 307.71 C81.33 217.49, 162.18 125.23, 244.61 28.46 M1.87 307.71 C55.07 247.9, 107.08 188.08, 244.61 28.46 M2.27 313.35 C61.22 247.99, 119.61 183.07, 246.32 32.6 M2.27 313.35 C63.84 242.81, 124.68 171.75, 246.32 32.6 M2.01 319.75 C94.96 213.38, 186.19 108.57, 246.06 38.99 M2.01 319.75 C75.82 235.94, 149.26 151.24, 246.06 38.99 M-0.22 328.41 C61.41 255.04, 125.1 182.24, 245.8 45.39 M-0.22 328.41 C83.14 233.64, 166.77 138.85, 245.8 45.39 M0.83 333.3 C87.34 233.08, 174.29 133.11, 246.19 51.04 M0.83 333.3 C64.87 260.36, 128.76 186.74, 246.19 51.04 M1.88 338.19 C53.67 277.51, 103.41 218.04, 245.93 57.43 M1.88 338.19 C70.89 261.32, 138.75 182.75, 245.93 57.43 M2.93 343.07 C80.81 254.21, 156.57 167.83, 246.33 63.08 M2.93 343.07 C77.9 257.2, 151.97 170.83, 246.33 63.08 M4.63 347.21 C64.06 278.58, 123.75 210.03, 246.06 69.47 M4.63 347.21 C88.34 247.36, 174.07 149.73, 246.06 69.47 M7.65 349.83 C95.26 248.41, 182.12 148.84, 245.8 75.87 M7.65 349.83 C84.67 261.91, 161.85 173.64, 245.8 75.87 M10.02 353.21 C79.74 271.04, 152.02 187.94, 246.2 81.51 M10.02 353.21 C59.19 297.89, 108.09 242.17, 246.2 81.51 M13.04 355.83 C82.04 277.08, 151.41 198.52, 245.94 87.91 M13.04 355.83 C75.25 283.8, 138.19 212.22, 245.94 87.91 M16.71 357.7 C81.42 286.25, 145.56 212.53, 246.33 93.56 M16.71 357.7 C75.84 291.52, 132.9 224.92, 246.33 93.56 M20.38 359.57 C106.64 258.18, 194.01 159.09, 246.07 99.95 M20.38 359.57 C101.48 263.56, 184.39 168.93, 246.07 99.95 M24.72 360.69 C81.22 295.32, 138.75 229.94, 245.81 106.35 M24.72 360.69 C84.97 289.49, 146.96 218.86, 245.81 106.35 M29.7 361.05 C112.12 270.1, 192.17 176.03, 246.2 111.99 M29.7 361.05 C99.32 280.79, 168.57 201.33, 246.2 111.99 M34.03 362.16 C100.15 286.91, 167 210.01, 245.94 118.39 M34.03 362.16 C87.01 300.33, 139.88 239.04, 245.94 118.39 M39.68 361.77 C102.25 290.89, 162.44 221.81, 246.34 124.04 M39.68 361.77 C100.55 290.94, 161.62 219.54, 246.34 124.04 M44.66 362.13 C97.66 298.1, 154.93 232.84, 246.07 130.43 M44.66 362.13 C104.9 291.8, 165.73 221.74, 246.07 130.43 M50.31 361.73 C100.26 305.5, 150.99 250.1, 245.81 136.83 M50.31 361.73 C120.01 283.11, 188.61 203.96, 245.81 136.83 M55.29 362.09 C125.78 283.21, 197.44 200.66, 246.21 142.47 M55.29 362.09 C119.33 289.06, 183.01 215.81, 246.21 142.47 M60.94 361.7 C104.17 311.29, 144.87 264.07, 245.95 148.87 M60.94 361.7 C130.08 278.14, 202.44 197.54, 245.95 148.87 M65.92 362.06 C137.25 280.66, 208.8 199.86, 246.34 154.51 M65.92 362.06 C106.56 314.83, 147.96 267.05, 246.34 154.51 M71.57 361.67 C121.87 305.12, 170.83 246.35, 246.08 160.91 M71.57 361.67 C140.73 282.37, 209.28 202.83, 246.08 160.91 M76.55 362.03 C128.65 300.19, 184.37 239.11, 245.82 167.31 M76.55 362.03 C114.03 319.03, 152.45 275.28, 245.82 167.31 M82.2 361.63 C140.09 293.55, 201.94 222.81, 246.21 172.95 M82.2 361.63 C120.9 317.46, 159.48 274.01, 246.21 172.95 M87.18 361.99 C137.43 307.45, 185.59 249.62, 245.95 179.35 M87.18 361.99 C142.08 298.27, 197 235.19, 245.95 179.35 M92.83 361.6 C137.48 312.12, 181.72 259.18, 246.35 184.99 M92.83 361.6 C130.65 318.01, 167.49 276.42, 246.35 184.99 M97.81 361.96 C137.19 314.57, 181.35 266.96, 246.08 191.39 M97.81 361.96 C156.81 296.5, 213.7 229.66, 246.08 191.39 M103.46 361.56 C150.48 307.51, 202.14 249.96, 245.82 197.79 M103.46 361.56 C134.33 327.41, 164.77 292.68, 245.82 197.79 M108.44 361.92 C159.38 305.29, 207.57 248.34, 246.22 203.43 M108.44 361.92 C150.3 313.78, 194.24 264.49, 246.22 203.43 M113.43 362.28 C155.62 315.45, 195.81 270.03, 245.96 209.83 M113.43 362.28 C142.88 327.02, 173.48 292.77, 245.96 209.83 M119.07 361.89 C146.53 328.73, 175.24 298.9, 246.35 215.47 M119.07 361.89 C151.28 324.98, 184.21 287.41, 246.35 215.47 M124.06 362.25 C152.11 330.21, 183.05 295.08, 246.09 221.87 M124.06 362.25 C153.35 330.67, 181.24 297.26, 246.09 221.87 M129.7 361.85 C172.78 318.24, 211.24 271.61, 245.83 228.27 M129.7 361.85 C167.41 318.98, 204.81 275.05, 245.83 228.27 M134.69 362.21 C166.78 328.86, 195.4 295.46, 246.22 233.91 M134.69 362.21 C161.66 330.55, 188.17 301.25, 246.22 233.91 M140.33 361.82 C178.37 316.31, 215.35 272.58, 245.96 240.31 M140.33 361.82 C161.5 335.69, 182.7 311.03, 245.96 240.31 M145.32 362.18 C186.05 317.55, 223.14 274.37, 246.35 245.95 M145.32 362.18 C179.69 322.01, 215.85 280.9, 246.35 245.95 M150.96 361.78 C180.21 327.66, 208.66 294.05, 246.09 252.35 M150.96 361.78 C184.13 325.12, 215.59 288.64, 246.09 252.35 M155.95 362.14 C185.33 332.15, 209.96 300.68, 245.83 258.75 M155.95 362.14 C185.71 328.15, 213.49 295.84, 245.83 258.75 M161.59 361.75 C191.56 324.93, 224.88 285.81, 246.23 264.39 M161.59 361.75 C192.09 328.04, 221.5 293.17, 246.23 264.39 M166.58 362.11 C195.03 328.19, 224.5 294.72, 245.96 270.79 M166.58 362.11 C197.16 327.29, 228.76 292.36, 245.96 270.79 M172.22 361.71 C199.58 331.24, 225.92 303.75, 246.36 276.43 M172.22 361.71 C190.48 340.7, 209.16 320.48, 246.36 276.43 M177.21 362.08 C193.24 343.43, 207.23 324.88, 246.1 282.83 M177.21 362.08 C194.12 342.41, 212.06 322.44, 246.1 282.83 M182.86 361.68 C205.91 333.23, 231.28 307.25, 245.84 289.23 M182.86 361.68 C207.39 333.66, 230.9 306.57, 245.84 289.23 M187.84 362.04 C201.43 347.31, 210.78 334.11, 246.23 294.87 M187.84 362.04 C204.99 343.52, 222.84 322.47, 246.23 294.87 M193.49 361.65 C205.31 349.19, 215.4 337.72, 245.97 301.27 M193.49 361.65 C208.32 343.89, 224.86 326.3, 245.97 301.27 M198.47 362.01 C212.41 345.19, 228.3 328.53, 246.36 306.91 M198.47 362.01 C214.78 341.27, 233.03 321.9, 246.36 306.91 M204.12 361.61 C217.33 344.15, 230.65 327.7, 246.1 313.31 M204.12 361.61 C216.84 346.47, 229.55 332.55, 246.1 313.31 M209.1 361.97 C223.52 346.08, 238.6 329.44, 245.84 319.71 M209.1 361.97 C224.23 344.58, 238.02 329.36, 245.84 319.71 M214.75 361.58 C224.69 349.43, 233.05 339.55, 246.24 325.35 M214.75 361.58 C224.62 350.05, 232.28 339.12, 246.24 325.35 M221.04 360.43 C227.31 353.44, 232.53 347.38, 247.29 330.24 M221.04 360.43 C229.49 350.31, 239.59 339.52, 247.29 330.24 M228 358.52 C233.52 351.3, 237.02 346.1, 246.37 337.39 M228 358.52 C234.03 352.76, 239.69 345.43, 246.37 337.39" stroke="#228be6" stroke-width="0.5" fill="none"></path><path d="M32 0 M32 0 C76.95 -1.29, 126.4 0.27, 213 0 M32 0 C93.4 0.05, 153.1 0.12, 213 0 M213 0 C236.26 -1.91, 246.25 9.86, 245 32 M213 0 C236.39 1.48, 246.19 12.73, 245 32 M245 32 C247.2 110.14, 245.78 192.09, 245 328 M245 32 C244.1 129.22, 244.88 227.52, 245 328 M245 328 C243.46 349.63, 235.2 360.3, 213 360 M245 328 C242.84 348.62, 233.39 360.25, 213 360 M213 360 C146.23 358.93, 78.17 359.4, 32 360 M213 360 C163.42 358.76, 113.6 358.21, 32 360 M32 360 C10.86 361.6, 1.5 350.85, 0 328 M32 360 C9.06 360.97, 2.05 348.91, 0 328 M0 328 C-1.59 247.27, -2.65 168.08, 0 32 M0 328 C-1.11 236.06, -1.04 143.7, 0 32 M0 32 C0.84 12, 11.12 1.75, 32 0 M0 32 C0.87 12.45, 9.78 -2, 32 0" stroke="#ffffff" stroke-width="1" fill="none"></path></g><g stroke-linecap="round" transform="translate(10 10) rotate(0 120 70)"><path d="M7.86 8.16 C7.86 8.16, 7.86 8.16, 7.86 8.16 M7.86 8.16 C7.86 8.16, 7.86 8.16, 7.86 8.16 M3.66 19.09 C7.25 12.88, 15.03 6.93, 18.1 2.48 M3.66 19.09 C9.51 14.14, 13.59 8.13, 18.1 2.48 M2.75 26.24 C8.15 18.87, 12.4 12.37, 24.4 1.33 M2.75 26.24 C7.78 20.32, 12.77 14.2, 24.4 1.33 M2.48 32.64 C10.83 21.76, 22.22 8.77, 30.7 0.18 M2.48 32.64 C12.32 23.03, 20.35 11.21, 30.7 0.18 M2.88 38.28 C13.72 25.48, 23.92 15.12, 34.37 2.05 M2.88 38.28 C9.11 28.96, 17.41 20.85, 34.37 2.05 M2.62 44.68 C16.07 27, 31.27 11.48, 39.36 2.41 M2.62 44.68 C14.5 32.5, 23.89 18.8, 39.36 2.41 M2.36 51.07 C18.07 32.88, 30.5 18.12, 45 2.02 M2.36 51.07 C14.75 36.02, 28.42 20.76, 45 2.02 M2.75 56.72 C18.49 38.33, 34.08 18.73, 49.99 2.38 M2.75 56.72 C11.92 44.12, 23.79 31.76, 49.99 2.38 M2.49 63.11 C17.64 49.19, 29.63 35.22, 55.63 1.98 M2.49 63.11 C16.66 46.72, 30.32 30.93, 55.63 1.98 M2.88 68.76 C16.81 54.07, 29.72 42.76, 60.62 2.34 M2.88 68.76 C21.27 48.28, 36.6 30.08, 60.62 2.34 M2.62 75.16 C21.66 53.6, 44.15 31.74, 66.26 1.95 M2.62 75.16 C22.22 51.42, 44.04 27.44, 66.26 1.95 M2.36 81.55 C30.85 50.26, 55.42 20.75, 71.25 2.31 M2.36 81.55 C18.11 64.2, 30.87 47.55, 71.25 2.31 M2.76 87.2 C32.58 53.59, 59.96 22.7, 76.89 1.91 M2.76 87.2 C17.78 68.72, 33.81 50.7, 76.89 1.91 M2.49 93.59 C32.17 60.79, 62.75 25.17, 81.88 2.27 M2.49 93.59 C26.36 65.63, 51.79 38.43, 81.88 2.27 M2.89 99.24 C23.33 75.72, 45.11 52.47, 87.52 1.88 M2.89 99.24 C29.82 68.98, 53.84 40.45, 87.52 1.88 M2.63 105.64 C38.57 63.87, 71.11 24.3, 92.51 2.24 M2.63 105.64 C35.36 67.13, 70.53 26.21, 92.51 2.24 M2.37 112.03 C38.15 68.16, 75.69 25.16, 98.15 1.85 M2.37 112.03 C22.97 87.45, 42.04 63.95, 98.15 1.85 M2.76 117.68 C26.51 91.96, 50.06 66.73, 103.14 2.21 M2.76 117.68 C32.78 83.7, 62.43 49.39, 103.14 2.21 M4.47 121.81 C31.52 91.16, 57.69 59.1, 108.78 1.81 M4.47 121.81 C31.69 90.54, 57.87 59.81, 108.78 1.81 M4.86 127.45 C45.82 77.09, 90.05 26.31, 113.77 2.17 M4.86 127.45 C47.09 79.1, 90.43 29.62, 113.77 2.17 M7.22 130.83 C34.12 100.24, 60.82 71.3, 119.41 1.78 M7.22 130.83 C50.37 82.78, 92.65 32.78, 119.41 1.78 M10.24 133.46 C48.64 89.1, 85.13 45.43, 124.4 2.14 M10.24 133.46 C39.52 101.23, 67.81 68.37, 124.4 2.14 M13.26 136.08 C42.17 101.75, 72.03 68.53, 130.04 1.74 M13.26 136.08 C40.19 106.58, 65.34 77.09, 130.04 1.74 M17.59 137.2 C45.4 104.17, 71.38 73.77, 135.03 2.1 M17.59 137.2 C55.49 94.81, 92.45 53.24, 135.03 2.1 M21.27 139.06 C61.03 92.49, 102.53 42.6, 140.67 1.71 M21.27 139.06 C52.22 103.81, 79.86 70.5, 140.67 1.71 M25.6 140.18 C53.74 107.11, 84.24 73.99, 145.66 2.07 M25.6 140.18 C62.89 96.67, 100.33 52.75, 145.66 2.07 M30.59 140.54 C66.5 95.3, 105.93 52.26, 150.65 2.43 M30.59 140.54 C54 111.89, 78.46 85.09, 150.65 2.43 M34.26 142.41 C80.37 85.82, 129.21 31.94, 156.29 2.03 M34.26 142.41 C61.75 109.94, 90.02 79.01, 156.29 2.03 M39.9 142.01 C76.39 99, 114.77 55.12, 161.28 2.39 M39.9 142.01 C76.27 99.68, 113.41 57.32, 161.28 2.39 M44.89 142.37 C80.75 101.1, 115.1 56.44, 166.92 2 M44.89 142.37 C78.84 103.19, 114.97 62.55, 166.92 2 M50.53 141.98 C94.9 89.93, 143.47 36.13, 171.91 2.36 M50.53 141.98 C78.76 111.12, 106.03 78.6, 171.91 2.36 M55.52 142.34 C89.91 98.23, 129.02 56.41, 177.55 1.96 M55.52 142.34 C103.28 88.8, 150.83 33.89, 177.55 1.96 M61.16 141.95 C103.94 94.77, 145.26 44.09, 182.54 2.32 M61.16 141.95 C97.45 99.89, 134.9 56.87, 182.54 2.32 M66.15 142.31 C99.09 104.3, 133.43 64.03, 188.18 1.93 M66.15 142.31 C104.2 98.74, 143.89 55.2, 188.18 1.93 M71.79 141.91 C114.43 94.82, 154.99 47.78, 193.17 2.29 M71.79 141.91 C109.93 98.23, 148.69 54, 193.17 2.29 M76.78 142.27 C104.68 111.49, 132.67 81.26, 198.81 1.9 M76.78 142.27 C110.62 104.39, 144.74 65.09, 198.81 1.9 M82.42 141.88 C115.02 106.71, 145.32 71.94, 203.8 2.26 M82.42 141.88 C123.13 94.31, 165.28 47.15, 203.8 2.26 M87.41 142.24 C127.05 99.32, 163.87 54.12, 209.44 1.86 M87.41 142.24 C131.86 88.27, 179.5 36.63, 209.44 1.86 M93.05 141.84 C128.1 98.99, 164.03 57.69, 215.74 0.71 M93.05 141.84 C129.92 100.21, 166.19 58.12, 215.74 0.71 M98.04 142.2 C126.48 114.18, 151.62 84.41, 220.07 1.83 M98.04 142.2 C142.27 92.59, 188.13 41.95, 220.07 1.83 M103.68 141.81 C132.03 108.04, 156.87 76.65, 223.74 3.7 M103.68 141.81 C146.46 93.53, 188.07 43.91, 223.74 3.7 M108.67 142.17 C152.65 94.65, 198.94 43.68, 228.07 4.81 M108.67 142.17 C139.42 106.46, 169.2 71.99, 228.07 4.81 M113.66 142.53 C156.22 93.75, 196.05 46.47, 231.09 7.43 M113.66 142.53 C156.29 92.09, 200.7 39.76, 231.09 7.43 M119.3 142.13 C155.78 96.99, 193.42 56.81, 233.46 10.81 M119.3 142.13 C154.98 101.55, 191.54 59.24, 233.46 10.81 M124.29 142.49 C156.77 107.08, 191.53 68.92, 236.48 13.44 M124.29 142.49 C154.52 108.35, 182.21 75.71, 236.48 13.44 M129.93 142.1 C171.5 90.41, 217.1 43.19, 238.18 17.57 M129.93 142.1 C162.91 105.45, 194.57 67.41, 238.18 17.57 M134.92 142.46 C158.51 117.11, 179.97 88.05, 241.2 20.2 M134.92 142.46 C173.34 95.14, 215.09 48.9, 241.2 20.2 M140.56 142.06 C162.3 115.55, 183.82 91.98, 241.6 25.84 M140.56 142.06 C159.71 117.68, 180.23 95.33, 241.6 25.84 M145.55 142.42 C169.81 117.2, 190.04 89.38, 240.68 32.99 M145.55 142.42 C181.37 102.7, 215.17 61.8, 240.68 32.99 M151.19 142.03 C182.85 104.26, 217.07 67.41, 241.07 38.63 M151.19 142.03 C175.88 111.67, 202.65 81.92, 241.07 38.63 M156.18 142.39 C189.9 102.39, 225.73 64.86, 240.81 45.03 M156.18 142.39 C183.58 111.99, 211.16 80.48, 240.81 45.03 M161.82 142 C191.23 111.77, 217.71 79.07, 240.55 51.43 M161.82 142 C186.35 115.13, 208.08 88.53, 240.55 51.43 M166.81 142.36 C189.88 120.91, 209.04 95.16, 240.94 57.07 M166.81 142.36 C183.74 123.41, 198.42 107.14, 240.94 57.07 M172.45 141.96 C189.21 127.8, 202.91 109.96, 240.68 63.47 M172.45 141.96 C185.63 126.32, 199.2 109.93, 240.68 63.47 M177.44 142.32 C203.03 114.99, 225.49 85.98, 241.08 69.11 M177.44 142.32 C192.25 124.36, 207.56 107.48, 241.08 69.11 M183.08 141.93 C202.56 118.12, 222.51 95.87, 240.82 75.51 M183.08 141.93 C198.57 124.91, 212.09 106.91, 240.82 75.51 M188.07 142.29 C199.84 130.66, 211.42 116.97, 240.55 81.91 M188.07 142.29 C204.05 124.98, 218.34 105.45, 240.55 81.91 M193.71 141.89 C208.85 123.8, 221.42 109.25, 240.95 87.55 M193.71 141.89 C211.75 119.81, 232.23 97.84, 240.95 87.55 M198.7 142.25 C212.12 125.85, 224.12 113.32, 240.69 93.95 M198.7 142.25 C212.73 126.1, 227.28 110.44, 240.69 93.95 M204.34 141.86 C217.03 128.72, 226.85 115.29, 241.08 99.59 M204.34 141.86 C217.31 125.33, 233.15 110.21, 241.08 99.59 M209.99 141.46 C215.62 135.04, 225.42 125.06, 240.82 105.99 M209.99 141.46 C221.39 128.54, 231.89 115.71, 240.82 105.99 M215.63 141.07 C225.73 127.68, 238.08 118.43, 242.53 110.12 M215.63 141.07 C221.51 133.15, 228.89 126.01, 242.53 110.12 M222.58 139.16 C227.88 132.66, 230.47 129.36, 241.61 117.28 M222.58 139.16 C227.7 134.36, 231.63 128.88, 241.61 117.28" stroke="#15aabf" stroke-width="0.5" fill="none"></path><path d="M32 0 M32 0 C78.47 1.3, 122.62 -0.57, 208 0 M32 0 C87.27 0.38, 142.1 0.22, 208 0 M208 0 C230.63 1.05, 239.72 10.31, 240 32 M208 0 C230.23 -1.45, 238.11 11.04, 240 32 M240 32 C241.55 59.34, 240.2 85.24, 240 108 M240 32 C239.55 48.79, 240.64 66.07, 240 108 M240 108 C238.04 128.84, 229.18 140.9, 208 140 M240 108 C237.86 129.98, 229.86 138.95, 208 140 M208 140 C149.06 143.53, 91.33 143.01, 32 140 M208 140 C169.63 142.21, 131.08 141.9, 32 140 M32 140 C10.38 141.25, 1.04 128.18, 0 108 M32 140 C9.82 140.78, -2.25 128.68, 0 108 M0 108 C-1.33 87.29, 0.15 69.99, 0 32 M0 108 C0.63 84.66, 1.4 61.11, 0 32 M0 32 C0.43 11.01, 9.6 0.28, 32 0 M0 32 C0.9 9.64, 10.98 -0.98, 32 0" stroke="#ffffff" stroke-width="1" fill="none"></path></g><g stroke-linecap="round" transform="translate(90 90) rotate(0 20 20)"><path d="M4.57 6.63 C4.57 6.63, 4.57 6.63, 4.57 6.63 M4.57 6.63 C4.57 6.63, 4.57 6.63, 4.57 6.63 M-5.43 22.55 C0.49 17.27, 9.07 12.43, 14.64 3.76 M-3.2 20.88 C4.38 13.33, 6.42 11.38, 12.15 1.24 M1.71 25.47 C6.74 17.23, 5.19 17.31, 17.78 2.64 M-0.99 22.23 C6.38 17.36, 11.62 14.87, 18.44 1.98 M-0.54 29.39 C8.54 18.37, 10.65 12.21, 24.2 7.18 M2.98 25.64 C10.63 18.86, 17.85 11, 23.83 2.54 M6.84 27.24 C13.83 21.69, 27.37 8.8, 24.66 3.69 M6.33 30.31 C13.69 22.05, 21.21 10.76, 30.26 2.65 M8.89 39.35 C17.12 26.11, 28.04 17.19, 32.33 6.43 M4.88 36.33 C13.89 26.82, 21.87 18.35, 31.83 5.99 M6.92 38.67 C21.49 24.42, 24.46 17.44, 38.33 12.28 M8.48 36.47 C16.76 32.49, 20.03 23.54, 35.78 9.36 M14.36 36.62 C16.31 31.8, 20.36 23.37, 41.44 12.28 M14.35 36.44 C22.62 25.89, 32.72 17.42, 37.81 12.78 M18.28 40.01 C23.19 33.75, 30.18 22.7, 41.83 13.64 M18.06 38.38 C26.63 30.77, 33.25 21.04, 41.18 15.9 M23.73 39.02 C25.8 36.87, 32.96 24.46, 37.38 19.74 M23.41 39.32 C28.87 33.97, 33.8 30.08, 42.64 20.59 M4.06 33.43 C4.06 33.43, 4.06 33.43, 4.06 33.43 M4.06 33.43 C4.06 33.43, 4.06 33.43, 4.06 33.43 M12.12 33.89 C8.95 36.83, 9.59 33.51, 1.61 27.7 M14.92 36.04 C9.2 34.86, 7.47 29.09, -1.3 23.47 M21.63 39.42 C17.69 31.61, 12.51 27.86, -2.77 16.56 M18.1 35.45 C13.53 31.96, 9.24 28.02, -2.19 17.75 M27.95 35.52 C17.95 29.75, 7.65 22.55, 2.23 17.95 M25.37 37.24 C17.53 30.31, 12.46 22.31, 0.13 13.71 M32.82 34.82 C18.39 29.02, 10.44 16.13, 1.66 11.2 M31.03 36.03 C25.31 31.34, 17.21 25.66, 2.6 12.51 M34.96 33.53 C24.99 27.97, 15.66 20.03, 9.09 8.61 M33.44 32.5 C22.35 21.23, 11.96 14.67, 3.51 9.53 M38.44 29.67 C28.84 17.93, 16.41 10.66, 7.41 6.64 M37.08 30.12 C27.03 21.42, 21.94 15.15, 8.78 3.82 M38.42 27.46 C34.66 24.82, 27.63 19.83, 14.14 4.87 M39.71 26.06 C32.56 21.55, 23.34 13.51, 10.65 3.57 M36.13 22.28 C30.52 13.6, 22.24 8.83, 17.6 1.09 M40.91 22.69 C31.71 16.29, 23.21 7.75, 13.4 -0.31 M35.93 14.96 C33.63 11.73, 28.85 8.25, 21.99 -2.43 M40.64 16.34 C34 9.39, 24.73 5.01, 19.92 -1.41" stroke="#ffffff" stroke-width="0.5" fill="none"></path><path d="M28.45 3.03 C32.08 4.97, 36.82 8, 38.64 12.01 C40.46 16.03, 41.07 22.7, 39.35 27.11 C37.62 31.53, 31.83 36.65, 28.3 38.52 C24.76 40.39, 22.19 39.19, 18.14 38.34 C14.1 37.49, 7.37 36.42, 4.05 33.42 C0.73 30.41, -1.91 24.84, -1.79 20.32 C-1.66 15.81, 1.77 9.54, 4.81 6.35 C7.86 3.16, 11.55 0.69, 16.46 1.2 C21.38 1.7, 30.33 7.54, 34.29 9.4 C38.26 11.26, 40.5 12.46, 40.27 12.38" stroke="#0b7285" stroke-width="1.5" fill="none" stroke-dasharray="1.5 7"></path></g><g stroke-linecap="round" transform="translate(50 70) rotate(0 30 30)"><path d="M48.99 8.52 C53.6 12.44, 58.22 19.94, 59.23 26.15 C60.24 32.36, 58.16 40.2, 55.03 45.78 C51.9 51.36, 46.87 57.79, 40.46 59.64 C34.05 61.48, 22.6 59.51, 16.57 56.83 C10.53 54.16, 6.62 48.97, 4.26 43.57 C1.89 38.18, 1.27 30.89, 2.37 24.45 C3.46 18, 5.78 8.93, 10.8 4.91 C15.83 0.88, 24.3 -4.28, 32.5 0.3 C40.71 4.88, 57.62 23.45, 60.02 32.39 C62.42 41.33, 47.64 53.97, 46.91 53.94" stroke="none" stroke-width="0" fill="#ffffff"></path><path d="M43.49 4.39 C48.94 7.24, 55.51 12.6, 58.05 18.63 C60.59 24.66, 61.2 34.15, 58.73 40.57 C56.27 47, 48.65 54.26, 43.26 57.2 C37.87 60.13, 32.52 59.41, 26.37 58.18 C20.22 56.95, 11.05 54.46, 6.36 49.81 C1.67 45.16, -1.92 36.94, -1.79 30.28 C-1.65 23.63, 2.75 14.72, 7.18 9.89 C11.61 5.07, 17.28 0.8, 24.77 1.34 C32.25 1.88, 46.29 10.13, 52.09 13.14 C57.9 16.15, 59.96 19.37, 59.6 19.39" stroke="#0b7285" stroke-width="1.5" fill="none" stroke-dasharray="1.5 7"></path></g><g stroke-linecap="round" transform="translate(30 90) rotate(0 20 20)"><path d="M4.57 6.63 C4.57 6.63, 4.57 6.63, 4.57 6.63 M4.57 6.63 C4.57 6.63, 4.57 6.63, 4.57 6.63 M-5.43 22.55 C0.49 17.27, 9.07 12.43, 14.64 3.76 M-3.2 20.88 C4.38 13.33, 6.42 11.38, 12.15 1.24 M1.71 25.47 C6.74 17.23, 5.19 17.31, 17.78 2.64 M-0.99 22.23 C6.38 17.36, 11.62 14.87, 18.44 1.98 M-0.54 29.39 C8.54 18.37, 10.65 12.21, 24.2 7.18 M2.98 25.64 C10.63 18.86, 17.85 11, 23.83 2.54 M6.84 27.24 C13.83 21.69, 27.37 8.8, 24.66 3.69 M6.33 30.31 C13.69 22.05, 21.21 10.76, 30.26 2.65 M8.89 39.35 C17.12 26.11, 28.04 17.19, 32.33 6.43 M4.88 36.33 C13.89 26.82, 21.87 18.35, 31.83 5.99 M6.92 38.67 C21.49 24.42, 24.46 17.44, 38.33 12.28 M8.48 36.47 C16.76 32.49, 20.03 23.54, 35.78 9.36 M14.36 36.62 C16.31 31.8, 20.36 23.37, 41.44 12.28 M14.35 36.44 C22.62 25.89, 32.72 17.42, 37.81 12.78 M18.28 40.01 C23.19 33.75, 30.18 22.7, 41.83 13.64 M18.06 38.38 C26.63 30.77, 33.25 21.04, 41.18 15.9 M23.73 39.02 C25.8 36.87, 32.96 24.46, 37.38 19.74 M23.41 39.32 C28.87 33.97, 33.8 30.08, 42.64 20.59 M4.06 33.43 C4.06 33.43, 4.06 33.43, 4.06 33.43 M4.06 33.43 C4.06 33.43, 4.06 33.43, 4.06 33.43 M12.12 33.89 C8.95 36.83, 9.59 33.51, 1.61 27.7 M14.92 36.04 C9.2 34.86, 7.47 29.09, -1.3 23.47 M21.63 39.42 C17.69 31.61, 12.51 27.86, -2.77 16.56 M18.1 35.45 C13.53 31.96, 9.24 28.02, -2.19 17.75 M27.95 35.52 C17.95 29.75, 7.65 22.55, 2.23 17.95 M25.37 37.24 C17.53 30.31, 12.46 22.31, 0.13 13.71 M32.82 34.82 C18.39 29.02, 10.44 16.13, 1.66 11.2 M31.03 36.03 C25.31 31.34, 17.21 25.66, 2.6 12.51 M34.96 33.53 C24.99 27.97, 15.66 20.03, 9.09 8.61 M33.44 32.5 C22.35 21.23, 11.96 14.67, 3.51 9.53 M38.44 29.67 C28.84 17.93, 16.41 10.66, 7.41 6.64 M37.08 30.12 C27.03 21.42, 21.94 15.15, 8.78 3.82 M38.42 27.46 C34.66 24.82, 27.63 19.83, 14.14 4.87 M39.71 26.06 C32.56 21.55, 23.34 13.51, 10.65 3.57 M36.13 22.28 C30.52 13.6, 22.24 8.83, 17.6 1.09 M40.91 22.69 C31.71 16.29, 23.21 7.75, 13.4 -0.31 M35.93 14.96 C33.63 11.73, 28.85 8.25, 21.99 -2.43 M40.64 16.34 C34 9.39, 24.73 5.01, 19.92 -1.41" stroke="#ffffff" stroke-width="0.5" fill="none"></path><path d="M28.45 3.03 C32.08 4.97, 36.82 8, 38.64 12.01 C40.46 16.03, 41.07 22.7, 39.35 27.11 C37.62 31.53, 31.83 36.65, 28.3 38.52 C24.76 40.39, 22.19 39.19, 18.14 38.34 C14.1 37.49, 7.37 36.42, 4.05 33.42 C0.73 30.41, -1.91 24.84, -1.79 20.32 C-1.66 15.81, 1.77 9.54, 4.81 6.35 C7.86 3.16, 11.55 0.69, 16.46 1.2 C21.38 1.7, 30.33 7.54, 34.29 9.4 C38.26 11.26, 40.5 12.46, 40.27 12.38" stroke="#0b7285" stroke-width="1.5" fill="none" stroke-dasharray="1.5 7"></path></g><g stroke-linecap="round" transform="translate(190 43.33333333333334) rotate(0 13.333333333333329 13.333333333333332)"><path d="M3.16 4.07 C3.16 4.07, 3.16 4.07, 3.16 4.07 M3.16 4.07 C3.16 4.07, 3.16 4.07, 3.16 4.07 M-4.49 17.46 C0.28 13.38, 7.45 9.66, 11.8 2.59 M-2.48 15.96 C3.85 9.71, 5.18 8.54, 9.56 0.32 M2.27 20.65 C6.6 13.24, 4.4 14.08, 15.05 1.6 M-0.43 17.42 C6.11 13.45, 10.51 11.93, 15.71 0.93 M-0.64 25.33 C7.6 15.29, 8.82 10.17, 20.82 6.89 M2.89 21.58 C9.32 16.28, 15.3 9.84, 20.45 2.25 M9.37 20.16 C13.22 18.1, 23.69 8.74, 19.31 5.66 M8.85 23.23 C13.27 18.5, 17.72 10.73, 24.91 4.62 M14.7 28.49 C18.83 20.06, 25.77 15.73, 26.99 8.41 M10.68 25.48 C16.46 19.32, 21.38 14.37, 26.48 7.96 M11.74 29.13 C21.26 20.52, 20.26 18.46, 29.97 16.92 M13.15 27.15 C18.56 25.93, 19.32 20.38, 27.68 14.3 M2.77 22.72 C2.77 22.72, 2.77 22.72, 2.77 22.72 M2.77 22.72 C2.77 22.72, 2.77 22.72, 2.77 22.72 M10.92 25.86 C5.72 23.33, 2.31 16.94, -0.29 13.46 M10.73 24.47 C7.74 21.06, 3.18 16.06, -0.84 15.38 M18.45 25.58 C9.22 24.15, 5 12.99, -3.07 10.19 M18.13 25.89 C13.58 21.2, 8.52 18.41, 2.19 11.03 M19.17 25.7 C18.03 18.26, 9.44 15.51, -0.43 3.2 M21.33 24.18 C17.26 20.53, 11.72 13.89, 1.75 6.48 M22.37 17.24 C17.59 19.07, 16.78 14.28, 6.02 6.13 M25.31 19.5 C17.95 17.12, 14.86 9.96, 2.96 1.68 M28.97 20.31 C25.4 12.82, 20.62 9.41, 6.08 -1.24 M25.44 16.34 C21.2 13.1, 17.23 9.43, 6.66 -0.05 M28.41 10.57 C21.71 7.59, 14.83 3.27, 13.3 1.98 M25.96 12.2 C21.05 8.04, 18.93 2.78, 11.31 -2.05" stroke="#ffffff" stroke-width="0.5" fill="none"></path><path d="M18.43 2.13 C20.84 3.45, 24.37 4.93, 25.7 7.6 C27.03 10.27, 27.66 15.06, 26.43 18.14 C25.2 21.22, 20.62 24.9, 18.32 26.06 C16.03 27.22, 15.3 25.71, 12.66 25.11 C10.03 24.51, 4.91 24.39, 2.51 22.49 C0.1 20.58, -1.91 16.77, -1.79 13.69 C-1.66 10.6, 1.12 6.09, 3.24 3.99 C5.35 1.89, 7.73 0.61, 10.93 1.1 C14.13 1.59, 19.69 5.81, 22.43 6.91 C25.17 8.01, 27.52 7.86, 27.38 7.7" stroke="#0b7285" stroke-width="1.5" fill="none" stroke-dasharray="1.5 7"></path></g><g stroke-linecap="round" transform="translate(163.33333333333331 30) rotate(0 20 20)"><path d="M32.22 5.89 C35.25 8.53, 38.58 13.36, 39.31 17.45 C40.04 21.53, 38.57 26.62, 36.6 30.4 C34.63 34.17, 31.83 38.89, 27.47 40.1 C23.1 41.3, 14.46 39.46, 10.4 37.6 C6.35 35.75, 4.51 32.46, 3.13 28.97 C1.75 25.47, 1.5 20.98, 2.13 16.62 C2.75 12.27, 3.56 5.57, 6.88 2.85 C10.21 0.13, 16.53 -2.93, 22.06 0.29 C27.58 3.51, 38.59 16.13, 40.02 22.15 C41.45 28.17, 31.19 36.44, 30.63 36.42" stroke="none" stroke-width="0" fill="#ffffff"></path><path d="M28.45 3.03 C32.08 4.97, 36.82 8, 38.64 12.01 C40.46 16.03, 41.07 22.7, 39.35 27.11 C37.62 31.53, 31.83 36.65, 28.3 38.52 C24.76 40.39, 22.19 39.19, 18.14 38.34 C14.1 37.49, 7.37 36.42, 4.05 33.42 C0.73 30.41, -1.91 24.84, -1.79 20.32 C-1.66 15.81, 1.77 9.54, 4.81 6.35 C7.86 3.16, 11.55 0.69, 16.46 1.2 C21.38 1.7, 30.33 7.54, 34.29 9.4 C38.26 11.26, 40.5 12.46, 40.27 12.38" stroke="#0b7285" stroke-width="1.5" fill="none" stroke-dasharray="1.5 7"></path></g><g stroke-linecap="round" transform="translate(150 43.33333333333334) rotate(0 13.333333333333329 13.333333333333332)"><path d="M3.16 4.07 C3.16 4.07, 3.16 4.07, 3.16 4.07 M3.16 4.07 C3.16 4.07, 3.16 4.07, 3.16 4.07 M-4.49 17.46 C0.28 13.38, 7.45 9.66, 11.8 2.59 M-2.48 15.96 C3.85 9.71, 5.18 8.54, 9.56 0.32 M2.27 20.65 C6.6 13.24, 4.4 14.08, 15.05 1.6 M-0.43 17.42 C6.11 13.45, 10.51 11.93, 15.71 0.93 M-0.64 25.33 C7.6 15.29, 8.82 10.17, 20.82 6.89 M2.89 21.58 C9.32 16.28, 15.3 9.84, 20.45 2.25 M9.37 20.16 C13.22 18.1, 23.69 8.74, 19.31 5.66 M8.85 23.23 C13.27 18.5, 17.72 10.73, 24.91 4.62 M14.7 28.49 C18.83 20.06, 25.77 15.73, 26.99 8.41 M10.68 25.48 C16.46 19.32, 21.38 14.37, 26.48 7.96 M11.74 29.13 C21.26 20.52, 20.26 18.46, 29.97 16.92 M13.15 27.15 C18.56 25.93, 19.32 20.38, 27.68 14.3 M2.77 22.72 C2.77 22.72, 2.77 22.72, 2.77 22.72 M2.77 22.72 C2.77 22.72, 2.77 22.72, 2.77 22.72 M10.92 25.86 C5.72 23.33, 2.31 16.94, -0.29 13.46 M10.73 24.47 C7.74 21.06, 3.18 16.06, -0.84 15.38 M18.45 25.58 C9.22 24.15, 5 12.99, -3.07 10.19 M18.13 25.89 C13.58 21.2, 8.52 18.41, 2.19 11.03 M19.17 25.7 C18.03 18.26, 9.44 15.51, -0.43 3.2 M21.33 24.18 C17.26 20.53, 11.72 13.89, 1.75 6.48 M22.37 17.24 C17.59 19.07, 16.78 14.28, 6.02 6.13 M25.31 19.5 C17.95 17.12, 14.86 9.96, 2.96 1.68 M28.97 20.31 C25.4 12.82, 20.62 9.41, 6.08 -1.24 M25.44 16.34 C21.2 13.1, 17.23 9.43, 6.66 -0.05 M28.41 10.57 C21.71 7.59, 14.83 3.27, 13.3 1.98 M25.96 12.2 C21.05 8.04, 18.93 2.78, 11.31 -2.05" stroke="#ffffff" stroke-width="0.5" fill="none"></path><path d="M18.43 2.13 C20.84 3.45, 24.37 4.93, 25.7 7.6 C27.03 10.27, 27.66 15.06, 26.43 18.14 C25.2 21.22, 20.62 24.9, 18.32 26.06 C16.03 27.22, 15.3 25.71, 12.66 25.11 C10.03 24.51, 4.91 24.39, 2.51 22.49 C0.1 20.58, -1.91 16.77, -1.79 13.69 C-1.66 10.6, 1.12 6.09, 3.24 3.99 C5.35 1.89, 7.73 0.61, 10.93 1.1 C14.13 1.59, 19.69 5.81, 22.43 6.91 C25.17 8.01, 27.52 7.86, 27.38 7.7" stroke="#0b7285" stroke-width="1.5" fill="none" stroke-dasharray="1.5 7"></path></g><g stroke-linecap="round"><g transform="translate(11.506250867247587 174.1248446071874) rotate(0 120 -20)"><path d="M-1.51 2.16 C1.31 5.44, 4.39 23.88, 17.93 20.49 C31.47 17.1, 62.61 -14.77, 79.75 -18.18 C96.89 -21.59, 107.78 3.44, 120.77 0.03 C133.76 -3.37, 144.18 -35.05, 157.69 -38.63 C171.19 -42.21, 188.46 -18.03, 201.79 -21.47 C215.12 -24.9, 230.85 -53.2, 237.66 -59.21 C244.48 -65.23, 242.67 -57.72, 242.68 -57.56 M2.87 0.87 C6.48 3.16, 10.72 19.68, 23.21 15.75 C35.7 11.82, 61.38 -20.54, 77.81 -22.72 C94.24 -24.9, 107.81 5.03, 121.77 2.66 C135.74 0.28, 148.99 -33.84, 161.6 -36.96 C174.21 -40.08, 184.74 -11.91, 197.46 -16.08 C210.18 -20.24, 230.54 -55.14, 237.92 -61.96 C245.29 -68.79, 241.18 -57.28, 241.71 -57.03" stroke="#a61e4d" stroke-width="4" fill="none"></path></g></g><mask></mask><g transform="translate(50.00536219278972 190) rotate(0 89.99464416503906 90.18037943556453)"><text x="89.99464416503906" y="0" font-family="Virgil, Segoe UI Emoji" font-size="72.14430354845163px" fill="#e67700" text-anchor="middle" style="white-space: pre;" direction="ltr" dominant-baseline="text-before-edge">LCSC</text><text x="89.99464416503906" y="90.18037943556453" font-family="Virgil, Segoe UI Emoji" font-size="72.14430354845163px" fill="#e67700" text-anchor="middle" style="white-space: pre;" direction="ltr" dominant-baseline="text-before-edge">UI</text></g></svg>