<?xml version="1.0" encoding="us-ascii" standalone="no"?><svg xmlns="http://www.w3.org/2000/svg" xmlns:xlink="http://www.w3.org/1999/xlink" contentStyleType="text/css" height="637px" preserveAspectRatio="none" style="width:755px;height:637px;background:#FFFFFF;" version="1.1" viewBox="0 0 755 637" width="755px" zoomAndPan="magnify"><defs/><g><rect fill="none" height="101.3984" style="stroke:#000000;stroke-width:1.5;" width="278.5" x="334" y="409.7578"/><line style="stroke:#181818;stroke-width:0.5;stroke-dasharray:5.0,5.0;" x1="46" x2="46" y1="40.2969" y2="598.2891"/><line style="stroke:#181818;stroke-width:0.5;stroke-dasharray:5.0,5.0;" x1="252" x2="252" y1="40.2969" y2="598.2891"/><line style="stroke:#181818;stroke-width:0.5;stroke-dasharray:5.0,5.0;" x1="425" x2="425" y1="40.2969" y2="598.2891"/><line style="stroke:#181818;stroke-width:0.5;stroke-dasharray:5.0,5.0;" x1="631" x2="631" y1="40.2969" y2="598.2891"/><line style="stroke:#181818;stroke-width:0.5;stroke-dasharray:5.0,5.0;" x1="727" x2="727" y1="40.2969" y2="598.2891"/><rect fill="#E2E2F0" height="30.2969" style="stroke:#181818;stroke-width:0.5;" width="78" x="9" y="5"/><rect fill="#E2E2F0" height="30.2969" style="stroke:#181818;stroke-width:0.5;" width="78" x="5" y="9"/><text fill="#000000" font-family="sans-serif" font-size="14" lengthAdjust="spacing" textLength="64" x="12" y="28.9951">WebPack</text><rect fill="#E2E2F0" height="30.2969" style="stroke:#181818;stroke-width:0.5;" width="78" x="9" y="597.2891"/><rect fill="#E2E2F0" height="30.2969" style="stroke:#181818;stroke-width:0.5;" width="78" x="5" y="601.2891"/><text fill="#000000" font-family="sans-serif" font-size="14" lengthAdjust="spacing" textLength="64" x="12" y="621.2842">WebPack</text><rect fill="#E2E2F0" height="30.2969" rx="2.5" ry="2.5" style="stroke:#181818;stroke-width:0.5;" width="164" x="170" y="9"/><text fill="#000000" font-family="sans-serif" font-size="14" lengthAdjust="spacing" textLength="150" x="177" y="28.9951">Visor WebPack.Config</text><rect fill="#E2E2F0" height="30.2969" rx="2.5" ry="2.5" style="stroke:#181818;stroke-width:0.5;" width="164" x="170" y="597.2891"/><text fill="#000000" font-family="sans-serif" font-size="14" lengthAdjust="spacing" textLength="150" x="177" y="617.2842">Visor WebPack.Config</text><rect fill="#E2E2F0" height="30.2969" rx="2.5" ry="2.5" style="stroke:#181818;stroke-width:0.5;" width="163" x="344" y="9"/><text fill="#000000" font-family="sans-serif" font-size="14" lengthAdjust="spacing" textLength="149" x="351" y="28.9951">Core WebPack Config</text><rect fill="#E2E2F0" height="30.2969" rx="2.5" ry="2.5" style="stroke:#181818;stroke-width:0.5;" width="163" x="344" y="597.2891"/><text fill="#000000" font-family="sans-serif" font-size="14" lengthAdjust="spacing" textLength="149" x="351" y="617.2842">Core WebPack Config</text><rect fill="#E2E2F0" height="30.2969" rx="2.5" ry="2.5" style="stroke:#181818;stroke-width:0.5;" width="129" x="567" y="9"/><text fill="#000000" font-family="sans-serif" font-size="14" lengthAdjust="spacing" textLength="115" x="574" y="28.9951">Visor CsConfig.js</text><rect fill="#E2E2F0" height="30.2969" rx="2.5" ry="2.5" style="stroke:#181818;stroke-width:0.5;" width="129" x="567" y="597.2891"/><text fill="#000000" font-family="sans-serif" font-size="14" lengthAdjust="spacing" textLength="115" x="574" y="617.2842">Visor CsConfig.js</text><rect fill="#E2E2F0" height="30.2969" style="stroke:#181818;stroke-width:0.5;" width="39" x="710" y="5"/><rect fill="#E2E2F0" height="30.2969" style="stroke:#181818;stroke-width:0.5;" width="39" x="706" y="9"/><text fill="#000000" font-family="sans-serif" font-size="14" lengthAdjust="spacing" textLength="25" x="713" y="28.9951">Env</text><rect fill="#E2E2F0" height="30.2969" style="stroke:#181818;stroke-width:0.5;" width="39" x="710" y="597.2891"/><rect fill="#E2E2F0" height="30.2969" style="stroke:#181818;stroke-width:0.5;" width="39" x="706" y="601.2891"/><text fill="#000000" font-family="sans-serif" font-size="14" lengthAdjust="spacing" textLength="25" x="713" y="621.2842">Env</text><polygon fill="#181818" points="240,67.4297,250,71.4297,240,75.4297,244,71.4297" style="stroke:#181818;stroke-width:1.0;"/><line style="stroke:#181818;stroke-width:1.0;" x1="46" x2="246" y1="71.4297" y2="71.4297"/><text fill="#000000" font-family="sans-serif" font-size="13" lengthAdjust="spacing" textLength="182" x="53" y="66.3638">require(.../webpack.config.js)</text><polygon fill="#181818" points="413.5,96.5625,423.5,100.5625,413.5,104.5625,417.5,100.5625" style="stroke:#181818;stroke-width:1.0;"/><line style="stroke:#181818;stroke-width:1.0;" x1="252" x2="419.5" y1="100.5625" y2="100.5625"/><text fill="#000000" font-family="sans-serif" font-size="13" lengthAdjust="spacing" textLength="114" x="259" y="95.4966">coreCfg(env,argv)</text><polygon fill="#181818" points="619.5,125.6953,629.5,129.6953,619.5,133.6953,623.5,129.6953" style="stroke:#181818;stroke-width:1.0;"/><line style="stroke:#181818;stroke-width:1.0;" x1="425.5" x2="625.5" y1="129.6953" y2="129.6953"/><text fill="#000000" font-family="sans-serif" font-size="13" lengthAdjust="spacing" textLength="155" x="432.5" y="124.6294">require(visor/csconfig.js)</text><polygon fill="#181818" points="436.5,139.6953,426.5,143.6953,436.5,147.6953,432.5,143.6953" style="stroke:#181818;stroke-width:1.0;"/><line style="stroke:#181818;stroke-width:1.0;stroke-dasharray:2.0,2.0;" x1="430.5" x2="630.5" y1="143.6953" y2="143.6953"/><polygon fill="#181818" points="715.5,168.8281,725.5,172.8281,715.5,176.8281,719.5,172.8281" style="stroke:#181818;stroke-width:1.0;"/><line style="stroke:#181818;stroke-width:1.0;" x1="425.5" x2="721.5" y1="172.8281" y2="172.8281"/><text fill="#000000" font-family="sans-serif" font-size="13" lengthAdjust="spacing" textLength="92" x="432.5" y="167.7622">BuildEnv(core)</text><polygon fill="#181818" points="436.5,182.8281,426.5,186.8281,436.5,190.8281,432.5,186.8281" style="stroke:#181818;stroke-width:1.0;"/><line style="stroke:#181818;stroke-width:1.0;stroke-dasharray:2.0,2.0;" x1="430.5" x2="726.5" y1="186.8281" y2="186.8281"/><polygon fill="#181818" points="715.5,211.9609,725.5,215.9609,715.5,219.9609,719.5,215.9609" style="stroke:#181818;stroke-width:1.0;"/><line style="stroke:#181818;stroke-width:1.0;" x1="425.5" x2="721.5" y1="215.9609" y2="215.9609"/><text fill="#000000" font-family="sans-serif" font-size="13" lengthAdjust="spacing" textLength="94" x="432.5" y="210.895">BuildEnv(visor)</text><polygon fill="#181818" points="436.5,225.9609,426.5,229.9609,436.5,233.9609,432.5,229.9609" style="stroke:#181818;stroke-width:1.0;"/><line style="stroke:#181818;stroke-width:1.0;stroke-dasharray:2.0,2.0;" x1="430.5" x2="726.5" y1="229.9609" y2="229.9609"/><path d="M280,242.9609 L280,312.9609 L570,312.9609 L570,252.9609 L560,242.9609 L280,242.9609 " fill="#FEFFDD" style="stroke:#181818;stroke-width:0.5;"/><path d="M560,242.9609 L560,252.9609 L570,252.9609 L560,242.9609 " fill="#FEFFDD" style="stroke:#181818;stroke-width:0.5;"/><text fill="#000000" font-family="sans-serif" font-size="13" lengthAdjust="spacing" textLength="269" x="286" y="260.0278">Usando el mecanismo de extension de JS:</text><text fill="#000000" font-family="sans-serif" font-size="13" lengthAdjust="spacing" textLength="4" x="286" y="275.1606">&#160;</text><text fill="#000000" font-family="sans-serif" font-size="13" lengthAdjust="spacing" textLength="192" x="286" y="290.2935">const ENV={...buildEnv(core),</text><text fill="#000000" font-family="sans-serif" font-size="13" lengthAdjust="spacing" textLength="108" x="290" y="305.4263">...buildEnv(visor}</text><line style="stroke:#181818;stroke-width:1.0;" x1="425.5" x2="467.5" y1="339.625" y2="339.625"/><line style="stroke:#181818;stroke-width:1.0;" x1="467.5" x2="467.5" y1="339.625" y2="352.625"/><line style="stroke:#181818;stroke-width:1.0;" x1="426.5" x2="467.5" y1="352.625" y2="352.625"/><polygon fill="#181818" points="436.5,348.625,426.5,352.625,436.5,356.625,432.5,352.625" style="stroke:#181818;stroke-width:1.0;"/><text fill="#000000" font-family="sans-serif" font-size="13" lengthAdjust="spacing" textLength="102" x="432.5" y="334.5591">buildBaseConfig</text><line style="stroke:#181818;stroke-width:1.0;" x1="425.5" x2="467.5" y1="381.7578" y2="381.7578"/><line style="stroke:#181818;stroke-width:1.0;" x1="467.5" x2="467.5" y1="381.7578" y2="394.7578"/><line style="stroke:#181818;stroke-width:1.0;" x1="426.5" x2="467.5" y1="394.7578" y2="394.7578"/><polygon fill="#181818" points="436.5,390.7578,426.5,394.7578,436.5,398.7578,432.5,394.7578" style="stroke:#181818;stroke-width:1.0;"/><text fill="#000000" font-family="sans-serif" font-size="13" lengthAdjust="spacing" textLength="192" x="432.5" y="376.6919">injectToBase(ENV, csconfig.js)</text><path d="M334,409.7578 L398,409.7578 L398,416.8906 L388,426.8906 L334,426.8906 L334,409.7578 " fill="#EEEEEE" style="stroke:#000000;stroke-width:1.5;"/><rect fill="none" height="101.3984" style="stroke:#000000;stroke-width:1.5;" width="278.5" x="334" y="409.7578"/><text fill="#000000" font-family="sans-serif" font-size="13" font-weight="bold" lengthAdjust="spacing" textLength="19" x="349" y="422.8247">alt</text><text fill="#000000" font-family="sans-serif" font-size="11" font-weight="bold" lengthAdjust="spacing" textLength="180" x="413" y="421.9683">[NODE_ENV is Development]</text><line style="stroke:#181818;stroke-width:1.0;" x1="425.5" x2="467.5" y1="448.0234" y2="448.0234"/><line style="stroke:#181818;stroke-width:1.0;" x1="467.5" x2="467.5" y1="448.0234" y2="461.0234"/><line style="stroke:#181818;stroke-width:1.0;" x1="426.5" x2="467.5" y1="461.0234" y2="461.0234"/><polygon fill="#181818" points="436.5,457.0234,426.5,461.0234,436.5,465.0234,432.5,461.0234" style="stroke:#181818;stroke-width:1.0;"/><text fill="#000000" font-family="sans-serif" font-size="13" lengthAdjust="spacing" textLength="168" x="432.5" y="442.9575">extendBaseWithDevConfig</text><line style="stroke:#181818;stroke-width:1.0;" x1="425.5" x2="467.5" y1="490.1563" y2="490.1563"/><line style="stroke:#181818;stroke-width:1.0;" x1="467.5" x2="467.5" y1="490.1563" y2="503.1563"/><line style="stroke:#181818;stroke-width:1.0;" x1="426.5" x2="467.5" y1="503.1563" y2="503.1563"/><polygon fill="#181818" points="436.5,499.1563,426.5,503.1563,436.5,507.1563,432.5,503.1563" style="stroke:#181818;stroke-width:1.0;"/><text fill="#000000" font-family="sans-serif" font-size="13" lengthAdjust="spacing" textLength="142" x="432.5" y="485.0903">injectToConfigProxyUrl</text><polygon fill="#181818" points="263,520.1563,253,524.1563,263,528.1563,259,524.1563" style="stroke:#181818;stroke-width:1.0;"/><line style="stroke:#181818;stroke-width:1.0;stroke-dasharray:2.0,2.0;" x1="257" x2="424.5" y1="524.1563" y2="524.1563"/><polygon fill="#181818" points="57,534.1563,47,538.1563,57,542.1563,53,538.1563" style="stroke:#181818;stroke-width:1.0;"/><line style="stroke:#181818;stroke-width:1.0;stroke-dasharray:2.0,2.0;" x1="51" x2="251" y1="538.1563" y2="538.1563"/><line style="stroke:#181818;stroke-width:1.0;" x1="46" x2="88" y1="567.2891" y2="567.2891"/><line style="stroke:#181818;stroke-width:1.0;" x1="88" x2="88" y1="567.2891" y2="580.2891"/><line style="stroke:#181818;stroke-width:1.0;" x1="47" x2="88" y1="580.2891" y2="580.2891"/><polygon fill="#181818" points="57,576.2891,47,580.2891,57,584.2891,53,580.2891" style="stroke:#181818;stroke-width:1.0;"/><text fill="#000000" font-family="sans-serif" font-size="13" lengthAdjust="spacing" textLength="83" x="53" y="562.2231">BuildOrServe</text><!--SRC=[ZLCxRy8m4DxzAqvCGOAmHsq70ai7GAB0M1ddeAR1JcsJK5NzxxKT7dO5LJV7zxtkpc6oB94PBeM6pWhNCyhUEq0rD1Mfg3ASyOeA0vqbrrB12P7cKcpurWDhLrXL-MOR4tAfy8o70C_i_Grugv_h5fdkz5NSOLcOSongNqLH4z9Kq7yAKcIWyEF05IPfcWuQN5SkC3lBTiaLweYNE9a_saDYPNjKRUikkHGl5f61lnam_LlS4qBjMCZgPp0yyBAmZIIk53ezzFk-iJyetkGMHqY386jKWVL2Kr58m1BsoAZWUY-XGC2ZGQ7jFDt7ypmZLave0-F9yl7BJcuTvUiH2EzyW6-2eW1dIUAmmKWzOqWrjckzY-DYPxVx8XqqiH5w44sLbWOcqz7urPQ0QnXXZQMizYZCNKdVeFTUSVDc6V-CqC9cIXu_5wfqFPAel-YnHO_9LknVqxx7fZhjQwhcg6hy0G00]--></g></svg>