<?xml version="1.0" encoding="us-ascii" standalone="no"?><svg xmlns="http://www.w3.org/2000/svg" xmlns:xlink="http://www.w3.org/1999/xlink" contentStyleType="text/css" height="556px" preserveAspectRatio="none" style="width:665px;height:556px;background:#FFFFFF;" version="1.1" viewBox="0 0 665 556" width="665px" zoomAndPan="magnify"><defs/><g><!--cluster Core--><g id="cluster_Core"><rect fill="none" height="232.29" rx="2.5" ry="2.5" style="stroke:#181818;stroke-width:1.0;" width="483" x="7" y="7"/><rect fill="none" height="10" style="stroke:#181818;stroke-width:1.0;" width="15" x="470" y="12"/><rect fill="none" height="2" style="stroke:#181818;stroke-width:1.0;" width="4" x="468" y="14"/><rect fill="none" height="2" style="stroke:#181818;stroke-width:1.0;" width="4" x="468" y="18"/><text fill="#000000" font-family="sans-serif" font-size="14" font-weight="bold" lengthAdjust="spacing" textLength="38" x="229.5" y="32.9951">Core</text></g><!--cluster Vlib--><g id="cluster_Vlib"><rect fill="none" height="216.3" rx="2.5" ry="2.5" style="stroke:#181818;stroke-width:1.0;" width="644" x="15" y="334.29"/><rect fill="none" height="10" style="stroke:#181818;stroke-width:1.0;" width="15" x="639" y="339.29"/><rect fill="none" height="2" style="stroke:#181818;stroke-width:1.0;" width="4" x="637" y="341.29"/><rect fill="none" height="2" style="stroke:#181818;stroke-width:1.0;" width="4" x="637" y="345.29"/><text fill="#000000" font-family="sans-serif" font-size="14" font-weight="bold" lengthAdjust="spacing" textLength="41" x="316.5" y="360.2851">Visor</text></g><!--entity core--><g id="elem_core"><rect fill="#F1F1F1" height="46.2969" rx="2.5" ry="2.5" style="stroke:#181818;stroke-width:0.5;" width="73" x="110.5" y="42"/><rect fill="#F1F1F1" height="10" style="stroke:#181818;stroke-width:0.5;" width="15" x="163.5" y="47"/><rect fill="#F1F1F1" height="2" style="stroke:#181818;stroke-width:0.5;" width="4" x="161.5" y="49"/><rect fill="#F1F1F1" height="2" style="stroke:#181818;stroke-width:0.5;" width="4" x="161.5" y="53"/><text fill="#000000" font-family="sans-serif" font-size="14" lengthAdjust="spacing" textLength="33" x="125.5" y="74.9951">Core</text></g><!--entity webpack--><g id="elem_webpack"><rect fill="#F1F1F1" height="46.2969" rx="2.5" ry="2.5" style="stroke:#181818;stroke-width:0.5;" width="108" x="219" y="42"/><rect fill="#F1F1F1" height="10" style="stroke:#181818;stroke-width:0.5;" width="15" x="307" y="47"/><rect fill="#F1F1F1" height="2" style="stroke:#181818;stroke-width:0.5;" width="4" x="305" y="49"/><rect fill="#F1F1F1" height="2" style="stroke:#181818;stroke-width:0.5;" width="4" x="305" y="53"/><text fill="#000000" font-family="sans-serif" font-size="14" lengthAdjust="spacing" textLength="68" x="234" y="74.9951">Web Pack</text></g><!--entity ts--><g id="elem_ts"><rect fill="#F1F1F1" height="46.2969" rx="2.5" ry="2.5" style="stroke:#181818;stroke-width:0.5;" width="113" x="361.5" y="42"/><rect fill="#F1F1F1" height="10" style="stroke:#181818;stroke-width:0.5;" width="15" x="454.5" y="47"/><rect fill="#F1F1F1" height="2" style="stroke:#181818;stroke-width:0.5;" width="4" x="452.5" y="49"/><rect fill="#F1F1F1" height="2" style="stroke:#181818;stroke-width:0.5;" width="4" x="452.5" y="53"/><text fill="#000000" font-family="sans-serif" font-size="14" lengthAdjust="spacing" textLength="73" x="376.5" y="74.9951">TypeScript</text></g><!--entity env--><g id="elem_env"><rect fill="#F1F1F1" height="46.2969" rx="2.5" ry="2.5" style="stroke:#181818;stroke-width:0.5;" width="65" x="147.5" y="171.14"/><rect fill="#F1F1F1" height="10" style="stroke:#181818;stroke-width:0.5;" width="15" x="192.5" y="176.14"/><rect fill="#F1F1F1" height="2" style="stroke:#181818;stroke-width:0.5;" width="4" x="190.5" y="178.14"/><rect fill="#F1F1F1" height="2" style="stroke:#181818;stroke-width:0.5;" width="4" x="190.5" y="182.14"/><text fill="#000000" font-family="sans-serif" font-size="14" lengthAdjust="spacing" textLength="25" x="162.5" y="204.1351">Env</text></g><!--entity ui--><g id="elem_ui"><rect fill="#F1F1F1" height="46.2969" rx="2.5" ry="2.5" style="stroke:#181818;stroke-width:0.5;" width="53" x="22.5" y="42"/><rect fill="#F1F1F1" height="10" style="stroke:#181818;stroke-width:0.5;" width="15" x="55.5" y="47"/><rect fill="#F1F1F1" height="2" style="stroke:#181818;stroke-width:0.5;" width="4" x="53.5" y="49"/><rect fill="#F1F1F1" height="2" style="stroke:#181818;stroke-width:0.5;" width="4" x="53.5" y="53"/><text fill="#000000" font-family="sans-serif" font-size="14" lengthAdjust="spacing" textLength="13" x="37.5" y="74.9951">Ui</text></g><!--entity BaseApp--><g id="elem_BaseApp"><ellipse cx="71" cy="194.29" fill="#F1F1F1" rx="8" ry="8" style="stroke:#181818;stroke-width:0.5;"/><text fill="#000000" font-family="sans-serif" font-size="14" lengthAdjust="spacing" textLength="66" x="38" y="224.2851">Base App</text></g><!--entity visor--><g id="elem_visor"><rect fill="#F1F1F1" height="46.2969" rx="2.5" ry="2.5" style="stroke:#181818;stroke-width:0.5;" width="74" x="285" y="488.29"/><rect fill="#F1F1F1" height="10" style="stroke:#181818;stroke-width:0.5;" width="15" x="339" y="493.29"/><rect fill="#F1F1F1" height="2" style="stroke:#181818;stroke-width:0.5;" width="4" x="337" y="495.29"/><rect fill="#F1F1F1" height="2" style="stroke:#181818;stroke-width:0.5;" width="4" x="337" y="499.29"/><text fill="#000000" font-family="sans-serif" font-size="14" lengthAdjust="spacing" textLength="34" x="300" y="521.2851">Visor</text></g><!--entity visorApp--><g id="elem_visorApp"><ellipse cx="71" cy="398.29" fill="#F1F1F1" rx="8" ry="8" style="stroke:#181818;stroke-width:0.5;"/><text fill="#000000" font-family="sans-serif" font-size="14" lengthAdjust="spacing" textLength="65" x="38.5" y="428.2851">Visor App</text></g><!--entity tsCfg--><g id="elem_tsCfg"><ellipse cx="576" cy="398.29" fill="#F1F1F1" rx="8" ry="8" style="stroke:#181818;stroke-width:0.5;"/><text fill="#000000" font-family="sans-serif" font-size="14" lengthAdjust="spacing" textLength="119" x="516.5" y="428.2851">TypeScript.config</text></g><!--entity CsConfig--><g id="elem_CsConfig"><ellipse cx="185" cy="398.29" fill="#F1F1F1" rx="8" ry="8" style="stroke:#181818;stroke-width:0.5;"/><text fill="#000000" font-family="sans-serif" font-size="14" lengthAdjust="spacing" textLength="62" x="154" y="428.2851">CsConfig</text></g><!--entity webpackCfg--><g id="elem_webpackCfg"><ellipse cx="322" cy="398.29" fill="#F1F1F1" rx="8" ry="8" style="stroke:#181818;stroke-width:0.5;"/><text fill="#000000" font-family="sans-serif" font-size="14" lengthAdjust="spacing" textLength="110" x="267" y="428.2851">WebPack.config</text></g><!--entity envVisor--><g id="elem_envVisor"><ellipse cx="447" cy="398.29" fill="#F1F1F1" rx="8" ry="8" style="stroke:#181818;stroke-width:0.5;"/><text fill="#000000" font-family="sans-serif" font-size="14" lengthAdjust="spacing" textLength="25" x="434.5" y="428.2851">Env</text></g><!--link core to BaseApp--><g id="link_core_BaseApp"><path d="M133.59,88.58 C116.29,117.53 87.07,166.41 75.71,185.41 " fill="none" id="core-BaseApp" style="stroke:#181818;stroke-width:1.0;"/></g><!--link webpack to env--><g id="link_webpack_env"><path d="M243.32,88.77 C233.46,97.28 222.98,107.52 215,118.29 C203.11,134.34 195.967,149.4711 189.957,165.0711 " fill="none" id="webpack-to-env" style="stroke:#181818;stroke-width:1.0;"/><polygon fill="#181818" points="187.8,170.67,194.7681,163.7097,189.5975,166.0043,187.3029,160.8337,187.8,170.67" style="stroke:#181818;stroke-width:1.0;"/><text fill="#000000" font-family="sans-serif" font-size="13" lengthAdjust="spacing" textLength="23" x="216" y="131.3569">use</text></g><!--link visorApp to visor--><g id="link_visorApp_visor"><path d="M79.82,403.8 C90.96,409.46 110.77,419.37 128,427.29 C181.94,452.08 245.3,478.79 284.56,495.07 " fill="none" id="visorApp-visor" style="stroke:#181818;stroke-width:1.0;"/></g><!--link CsConfig to visor--><g id="link_CsConfig_visor"><path d="M193.99,406.59 C213.99,422.81 262.87,462.47 294.11,487.82 " fill="none" id="CsConfig-visor" style="stroke:#181818;stroke-width:1.0;"/></g><!--link webpackCfg to visor--><g id="link_webpackCfg_visor"><path d="M322,407.29 C322,424.01 322,463.21 322,488.18 " fill="none" id="webpackCfg-visor" style="stroke:#181818;stroke-width:1.0;"/></g><!--link tsCfg to visor--><g id="link_tsCfg_visor"><path d="M567.26,403.12 C534.72,417.36 419.42,467.81 359.22,494.15 " fill="none" id="tsCfg-visor" style="stroke:#181818;stroke-width:1.0;"/></g><!--link envVisor to visor--><g id="link_envVisor_visor"><path d="M438.01,407.29 C419.26,423.96 375.38,462.98 347.28,487.96 " fill="none" id="envVisor-visor" style="stroke:#181818;stroke-width:1.0;"/></g><!--link webpack to webpackCfg--><g id="link_webpack_webpackCfg"><path d="M282.54,88.63 C286.03,97.69 289.69,108.34 292,118.29 C316.47,223.64 320.9178,350.0917 321.7078,383.4117 " fill="none" id="webpack-to-webpackCfg" style="stroke:#181818;stroke-width:1.0;"/><polygon fill="#181818" points="321.85,389.41,325.6356,380.3177,321.7315,384.4114,317.6378,380.5073,321.85,389.41" style="stroke:#181818;stroke-width:1.0;"/></g><!--link webpack to CsConfig--><g id="link_webpack_CsConfig"><path d="M268.12,88.56 C260.55,122.89 245.25,190.48 230,247.29 C215.27,302.17 196.4345,361.7073 189.3345,383.8173 " fill="none" id="webpack-to-CsConfig" style="stroke:#181818;stroke-width:1.0;"/><polygon fill="#181818" points="187.5,389.53,194.0602,382.184,189.0287,384.7694,186.4432,379.738,187.5,389.53" style="stroke:#181818;stroke-width:1.0;"/></g><!--link webpack to envVisor--><g id="link_webpack_envVisor"><path d="M295.39,88.59 C303.45,97.39 312.22,107.87 319,118.29 C383.78,217.93 430.8899,350.0123 442.4599,383.8723 " fill="none" id="webpack-to-envVisor" style="stroke:#181818;stroke-width:1.0;"/><polygon fill="#181818" points="444.4,389.55,445.275,379.7401,442.7833,384.8186,437.7048,382.3269,444.4,389.55" style="stroke:#181818;stroke-width:1.0;"/></g><!--link ts to tsCfg--><g id="link_ts_tsCfg"><path d="M434.4,88.7 C440.6,97.69 447.48,108.26 453,118.29 C509.92,221.71 558.9309,351.0317 571.1509,384.1117 " fill="none" id="ts-to-tsCfg" style="stroke:#181818;stroke-width:1.0;"/><polygon fill="#181818" points="573.23,389.74,573.8635,379.9115,571.4974,385.0498,566.3591,382.6837,573.23,389.74" style="stroke:#181818;stroke-width:1.0;"/></g><!--link visorApp to BaseApp--><g id="link_visorApp_BaseApp"><path d="M71,389.61 C71,357.6 71,252.96 71,220.97 " fill="none" id="visorApp-to-BaseApp" style="stroke:#181818;stroke-width:1.0;"/><polygon fill="none" points="71,202.97,65,220.97,77,220.97,71,202.97" style="stroke:#181818;stroke-width:1.0;"/></g><!--SRC=[PL7BRi8m4BpxArQSoi6e0QcgSa1jquU4G485qaFLWnEMo6gmezXELRNyUstdHIY7Q7TsFJipfF9OI852GoHBX1y2zlVkwWzW2b9RrD0R9h1cwQU7lp0fR5rFjjy5RjAI5zhFjAhX9r7v7aLL0plkUyDzouN6yi1IXD43KmZtHJ5oOzVOskyqDL1Jq5vASnmedJloq2Wa9qBIpadCbImTLvppfBNaGI-WSjMbXlfDAyAlkCiNQxtLIIh5WMUruUYGNIn6AlBp2zY6w38yUzoO-SzWuslIYpkz_jDfe_JCIdjmYFRiGznB7aBjeHuz0I5zrYxjCx73GMTt27VYjMgGEgip2vJ-phl_dC0TYhqvveIiSoRqRhM42al5fO1WChsUpYP1SFM6UzXW0S4CWjjmUXFEPh3RHk3cOtBribw2agQq6UwvqYLFZBO4Ox9W5ODN8pG_OWZ2v3bPnAiGDYQnQqmZn2loY0TcSctZJ-MUYooqrC_qbYoPo0pBseUHj3pbTztz0G00]--></g></svg>